<?xml version="1.0" standalone="no"?>
<!DOCTYPE svg PUBLIC "-//W3C//DTD SVG 20010904//EN"
 "http://www.w3.org/TR/2001/REC-SVG-20010904/DTD/svg10.dtd">
<svg version="1.0" xmlns="http://www.w3.org/2000/svg"
 width="715.000000pt" height="715.000000pt" viewBox="0 0 715.000000 715.000000"
 preserveAspectRatio="xMidYMid meet">
<metadata>
Created by potrace 1.14, written by Peter Selinger 2001-2017
</metadata>
<g transform="translate(0.000000,715.000000) scale(0.100000,-0.100000)"
fill="#000000" stroke="none">
<path d="M2033 7094 c-14 -30 -29 -54 -34 -54 -5 0 -9 -7 -9 -15 0 -8 -7 -15
-15 -15 -9 0 -12 -6 -9 -15 4 -10 0 -15 -15 -15 -18 0 -20 -4 -15 -24 4 -19 2
-24 -13 -23 -12 1 -19 -6 -21 -21 -2 -12 -8 -19 -14 -16 -6 4 -14 0 -19 -7 -4
-8 -14 -14 -21 -14 -8 0 -12 -12 -12 -32 2 -30 0 -31 -60 -43 -33 -7 -74 -19
-91 -27 l-30 -14 40 5 c22 2 32 2 22 -1 -12 -3 -16 -11 -12 -23 5 -15 -2 -19
-37 -26 -36 -6 -39 -8 -19 -13 33 -9 40 -61 8 -62 -12 0 -16 -3 -9 -6 25 -10
11 -23 -24 -23 -28 0 -35 -3 -30 -15 4 -11 -3 -19 -22 -27 l-27 -11 25 -6 c24
-7 24 -8 -17 -32 -49 -27 -53 -36 -20 -42 21 -3 21 -4 -5 -15 -16 -6 -28 -16
-28 -21 0 -5 -11 -12 -25 -15 -30 -8 -24 -26 9 -26 37 0 38 -11 5 -41 -17 -15
-28 -32 -25 -37 3 -6 3 -12 -1 -15 -5 -2 -1 -2 7 1 8 3 29 6 45 8 17 2 21 1
10 -2 -28 -8 -43 -24 -23 -24 27 0 26 -33 -1 -58 l-26 -23 30 5 30 6 -22 -19
c-13 -11 -23 -29 -23 -40 0 -12 -6 -21 -15 -21 -8 0 -15 -7 -15 -15 0 -8 5
-15 12 -15 6 0 3 -8 -7 -20 -10 -11 -22 -17 -28 -13 -6 3 -7 1 -3 -5 3 -6 -2
-15 -11 -21 -16 -9 -16 -12 -3 -20 13 -9 13 -12 0 -23 -9 -7 -24 -23 -34 -35
l-18 -22 36 6 c41 6 48 -7 17 -34 -11 -9 -17 -22 -14 -29 3 -8 1 -14 -5 -14
-5 0 -12 -9 -15 -20 -4 -15 0 -20 15 -20 19 0 19 0 -2 -34 -11 -19 -17 -37
-11 -40 5 -3 12 0 14 6 4 9 6 8 6 -2 1 -9 -4 -21 -10 -27 -7 -7 -6 -15 5 -25
10 -10 11 -19 5 -25 -7 -7 -6 -19 2 -37 10 -20 10 -29 1 -38 -14 -14 -16 -64
-2 -73 6 -4 6 -15 0 -31 -6 -14 -7 -31 -3 -37 3 -6 7 -27 7 -46 1 -20 6 -35
11 -34 6 1 9 -17 6 -43 -2 -27 1 -44 8 -44 6 0 11 -13 11 -29 0 -16 5 -31 11
-33 9 -3 9 -10 -1 -27 -9 -18 -9 -22 0 -16 8 5 11 1 8 -11 -2 -11 4 -24 17
-32 14 -10 15 -12 3 -8 -14 4 -16 2 -9 -12 25 -49 41 -97 47 -135 4 -23 11
-47 15 -53 5 -6 10 -24 11 -40 1 -16 5 -34 10 -40 5 -7 11 -43 15 -80 3 -38
15 -84 25 -103 11 -19 15 -38 11 -42 -11 -11 2 -129 23 -222 19 -82 12 -186
-16 -232 -21 -35 -31 -120 -13 -120 20 0 26 -14 12 -31 -12 -15 -14 -14 -20 3
-7 16 -8 16 -8 -4 -1 -12 -5 -25 -11 -28 -16 -10 -12 -26 6 -23 10 2 19 -2 21
-8 2 -7 -4 -11 -14 -10 -14 1 -18 -8 -20 -44 -3 -84 -14 -133 -26 -121 -13 13
-27 14 -27 2 0 -5 9 -11 20 -14 25 -6 28 -63 5 -93 -8 -10 -15 -27 -15 -36 0
-10 -9 -23 -20 -30 -11 -7 -20 -16 -20 -21 0 -4 -22 -36 -50 -71 -47 -60 -55
-81 -24 -69 8 3 14 0 14 -6 0 -6 -4 -11 -10 -11 -5 0 -10 -10 -10 -22 0 -21 2
-20 21 10 28 42 42 41 23 -3 -18 -45 -18 -56 4 -48 14 5 15 3 5 -8 -7 -7 -13
-21 -13 -31 0 -10 -7 -18 -16 -18 -9 0 -14 -6 -11 -13 7 -19 -261 -27 -910
-27 l-513 0 0 -399 c0 -354 2 -400 16 -405 9 -3 51 -6 94 -6 73 0 130 -13 130
-30 0 -9 34 -20 75 -25 16 -2 31 -8 33 -14 2 -6 9 -8 14 -5 6 4 67 8 135 9 68
1 126 5 130 9 9 9 35 7 29 -2 -3 -4 10 -7 27 -6 18 1 35 -2 38 -8 4 -6 12 -7
19 -3 9 6 9 9 -1 16 -10 6 -10 9 -2 9 6 0 15 -5 18 -10 4 -7 12 -7 25 0 10 5
25 7 33 4 8 -3 18 -1 22 5 3 6 18 11 33 11 31 0 37 3 -181 -99 -70 -33 -180
-91 -245 -129 -64 -39 -155 -88 -202 -111 -112 -54 -203 -103 -223 -120 -16
-12 -17 -95 -17 -1002 l0 -989 3575 0 3575 0 0 758 0 758 -82 49 c-46 27 -94
55 -108 64 -14 9 -38 23 -55 32 -26 14 -36 35 -101 235 -39 120 -79 247 -89
281 -18 65 -32 76 -85 63 -29 -7 -46 -50 -81 -208 -13 -56 -25 -101 -28 -100
-28 13 -174 100 -215 127 -28 19 -84 49 -124 68 -48 21 -76 40 -79 53 -3 11
-11 20 -19 20 -8 0 -11 -6 -8 -15 8 -19 -8 -18 -71 4 -40 14 -50 22 -52 42 -1
13 -4 41 -6 61 -3 25 2 48 14 67 11 18 14 33 9 36 -6 4 -10 15 -10 25 0 10 -8
23 -17 29 -10 5 -15 13 -11 16 10 10 28 -4 38 -31 5 -13 17 -24 27 -24 12 0
14 3 6 11 -6 6 -9 18 -6 26 5 11 9 11 24 -3 16 -15 19 -15 19 -2 0 9 12 18 28
21 35 7 637 1 649 -6 5 -3 42 1 83 9 90 17 132 18 147 3 8 -8 41 -9 107 -4
l96 7 0 57 0 56 -115 -4 c-73 -2 -115 1 -115 7 0 6 -9 8 -20 5 -13 -3 -20 0
-20 8 -1 10 -4 10 -13 -3 -16 -20 -70 -17 -115 6 -17 9 -40 16 -50 16 -11 0
-31 9 -45 20 -14 11 -30 20 -36 20 -6 0 -11 4 -11 9 0 5 -11 12 -25 15 -14 4
-23 11 -20 16 4 6 -1 13 -9 16 -21 8 -20 21 2 27 13 4 12 5 -5 6 -12 0 -34 13
-50 27 -22 21 -25 27 -13 34 11 7 12 10 2 10 -7 0 -10 5 -7 11 4 5 4 21 1 35
-5 18 -13 24 -34 24 -21 0 -24 2 -12 10 10 6 11 10 3 10 -8 0 -13 14 -13 38 0
21 -7 47 -15 58 -18 24 -19 87 -2 114 14 24 -2 39 -43 40 -24 0 -67 20 -44 20
6 0 10 12 8 27 -1 15 3 31 9 35 7 4 -15 6 -48 4 -53 -4 -56 -3 -25 6 19 5 51
8 71 5 36 -5 37 -5 17 15 -17 17 -35 19 -171 21 -247 2 -85 14 238 17 160 1
389 5 510 9 157 6 2 8 -542 9 -420 1 -763 5 -763 10 0 7 -24 36 -82 100 -11
12 -15 22 -10 22 23 0 38 96 16 108 -9 5 -12 15 -8 25 3 9 10 14 15 11 5 -3 7
-10 4 -15 -4 -5 5 -9 19 -9 14 0 27 4 30 9 4 5 -3 7 -14 4 -11 -3 -20 0 -20 6
0 6 5 11 10 11 6 0 10 5 10 11 0 6 -9 8 -20 4 -16 -5 -20 -2 -20 15 0 17 4 20
20 15 18 -6 20 -3 14 19 -4 17 -2 26 5 26 7 0 1 11 -13 25 -14 14 -30 25 -35
25 -6 0 -8 7 -5 15 4 8 1 22 -6 30 -21 25 -6 26 23 1 15 -13 27 -30 27 -39 0
-9 5 -19 10 -22 6 -4 10 10 10 34 0 40 -6 46 -37 42 -19 -3 -16 16 4 23 9 4
21 2 27 -4 5 -5 16 -10 23 -10 11 0 10 5 -2 23 -8 13 -12 27 -8 32 5 4 2 5 -4
1 -7 -4 -18 -4 -25 0 -7 4 -25 9 -41 11 l-29 3 23 -19 c13 -11 20 -23 16 -28
-5 -4 -14 -1 -20 8 -7 8 -20 18 -29 22 -10 3 -18 13 -18 22 0 8 -7 15 -15 15
-8 0 -15 5 -15 10 0 6 5 10 10 10 6 0 10 5 10 10 0 6 -6 10 -14 8 -8 -2 -15 1
-14 6 0 5 -6 13 -14 17 -11 7 -11 9 1 9 7 0 11 6 7 15 -3 8 0 15 7 15 8 0 9 2
1 8 -6 4 -17 44 -23 90 -7 46 -19 101 -26 123 -8 21 -12 39 -9 39 3 0 -1 7
-10 15 -8 9 -13 22 -9 30 4 11 1 13 -11 9 -15 -6 -21 8 -17 41 0 6 -8 16 -19
23 -16 10 -20 10 -20 -1 0 -7 5 -18 12 -25 6 -6 8 -15 4 -19 -22 -23 -29 52
-9 104 5 13 2 15 -16 10 -17 -4 -21 -2 -17 9 3 8 1 25 -4 38 -5 14 -5 27 0 32
5 5 5 15 0 24 -8 12 -10 12 -16 -3 -3 -9 -11 -14 -17 -10 -7 4 -8 -24 -3 -88
4 -52 7 -103 7 -114 0 -11 5 -23 12 -27 9 -6 8 -10 -3 -17 -12 -9 -11 -14 8
-34 23 -25 29 -47 12 -47 -15 0 -6 -70 9 -80 9 -5 10 -10 2 -14 -14 -9 -14
-81 -1 -106 7 -13 6 -19 -5 -23 -18 -8 -3 -66 22 -84 9 -7 12 -13 7 -13 -6 0
-15 5 -22 12 -20 20 -26 -1 -6 -23 19 -21 19 -22 -2 -15 -20 6 -21 4 -16 -46
3 -34 11 -60 23 -71 11 -10 19 -23 19 -30 0 -7 -9 -1 -20 13 -10 14 -22 22
-26 18 -4 -4 -1 -14 5 -22 8 -10 9 -16 1 -21 -6 -3 -8 -10 -5 -15 3 -5 1 -11
-5 -15 -5 -3 -10 -1 -10 5 0 6 -4 9 -9 5 -5 -3 -6 -18 -2 -33 8 -31 4 -62 -9
-62 -5 0 -7 7 -4 15 4 8 0 23 -7 32 -8 9 -19 28 -26 42 -11 25 -11 24 -12 -16
-1 -23 4 -45 9 -48 20 -13 10 -27 -15 -21 -22 6 -25 3 -27 -21 0 -16 0 -37 1
-48 1 -15 -5 -11 -25 15 -15 19 -24 27 -20 16 5 -14 2 -17 -10 -12 -14 6 -16
0 -12 -38 4 -33 2 -46 -9 -50 -8 -3 -13 -13 -11 -22 2 -9 -3 -19 -9 -21 -7 -3
-13 3 -13 13 0 17 -2 16 -22 -3 -16 -16 -19 -25 -11 -35 9 -10 6 -13 -13 -14
-13 -1 -24 2 -24 8 0 5 -5 6 -11 2 -8 -5 -6 -10 5 -16 12 -7 14 -14 6 -28 -13
-25 -13 -30 5 -30 8 0 15 -7 15 -16 0 -10 -5 -14 -15 -10 -22 8 -29 -17 -17
-54 7 -18 7 -32 1 -35 -5 -4 -9 -15 -9 -26 0 -10 -4 -19 -9 -19 -5 0 -11 -9
-14 -20 -3 -13 -11 -18 -20 -14 -15 5 -33 -36 -28 -65 1 -7 -4 -11 -11 -8 -7
2 -11 11 -9 18 2 8 5 21 5 31 1 9 8 23 14 31 11 12 10 15 -5 13 -11 0 -21 -12
-25 -31 -4 -16 -10 -42 -14 -57 -5 -22 -3 -28 10 -28 10 0 16 -8 16 -21 0 -16
-4 -19 -20 -14 -15 5 -20 2 -20 -14 0 -11 -5 -23 -12 -27 -8 -5 -9 1 -5 22 3
17 2 36 -4 44 -6 11 -9 5 -10 -20 -1 -35 -16 -96 -18 -72 -2 30 -19 8 -26 -35
-4 -29 -10 -42 -14 -32 -4 10 -18 15 -39 14 -35 -1 -58 -23 -42 -39 13 -13 13
-56 0 -56 -5 0 -10 9 -10 20 0 11 -5 20 -10 20 -6 0 -8 13 -5 33 5 25 4 29 -6
20 -12 -12 -14 -99 -3 -136 5 -16 3 -17 -14 -8 -29 16 -32 14 -23 -16 5 -16 5
-37 0 -48 -6 -16 -8 -13 -9 15 -3 51 -14 83 -30 88 -9 2 -11 0 -5 -5 10 -8 13
-18 22 -85 4 -28 0 -42 -16 -59 -12 -13 -21 -18 -21 -11 0 6 5 14 10 17 6 4 7
11 4 17 -4 7 -2 8 4 4 13 -8 17 40 6 69 -6 14 -8 13 -18 -7 -7 -13 -8 -26 -3
-29 5 -4 5 -9 -1 -13 -6 -3 -20 14 -32 39 -12 25 -25 45 -29 45 -4 0 -12 -12
-19 -27 l-12 -28 5 28 c3 15 8 38 11 52 3 14 2 25 -4 25 -5 0 -12 -14 -16 -32
-10 -52 -14 -27 -6 35 9 59 2 85 -30 120 -8 9 -21 24 -29 32 -7 9 -16 14 -19
10 -4 -3 -1 -10 6 -14 11 -7 62 -96 62 -109 0 -2 -8 2 -17 9 -15 12 -16 12
-10 -4 4 -11 1 -31 -7 -45 -8 -15 -18 -36 -21 -47 -4 -12 -9 -15 -12 -8 -2 7
0 21 6 32 6 10 9 34 6 53 -4 23 -3 27 3 14 8 -19 9 -19 15 4 4 17 -1 30 -18
48 -14 14 -25 30 -25 36 -1 6 -15 27 -31 46 l-31 35 7 -33 7 -33 -26 26 c-14
14 -34 40 -43 58 -17 31 -18 31 -21 8 -2 -13 5 -35 15 -50 34 -46 38 -57 13
-36 -13 11 -32 27 -42 35 -11 8 -35 30 -54 48 -21 20 -31 26 -27 15 4 -10 16
-25 26 -33 13 -11 17 -24 14 -40 -4 -24 -5 -24 -11 -5 -7 19 -44 51 -51 43 -2
-2 3 -21 10 -43 8 -21 12 -41 10 -44 -5 -5 -25 44 -34 83 -4 16 -13 32 -20 34
-10 3 -11 0 -5 -9 4 -8 9 -34 10 -58 1 -33 7 -49 24 -63 13 -10 20 -22 16 -26
-8 -8 -53 43 -62 70 -3 9 -14 20 -25 23 -10 4 -19 11 -19 17 0 6 6 6 15 -2 13
-10 15 -9 15 9 0 14 -4 20 -12 15 -6 -4 -17 1 -25 11 -12 17 -13 17 -13 2 0
-9 4 -17 10 -17 5 0 7 -7 4 -15 -3 -8 -2 -20 2 -27 5 -7 10 -30 11 -51 3 -44
28 -96 49 -104 8 -3 24 4 34 15 13 13 29 19 47 17 15 -2 33 1 39 6 17 14 58
-35 51 -63 -6 -22 -6 -22 9 -3 8 11 12 26 9 34 -4 11 -3 12 10 1 12 -10 15
-10 15 3 0 29 15 25 16 -4 1 -15 -2 -26 -7 -24 -4 3 -10 -8 -14 -25 -4 -16
-11 -30 -15 -30 -5 0 -7 -7 -4 -15 4 -8 11 -15 16 -15 6 0 8 7 4 15 -3 9 0 15
9 15 8 0 12 -6 9 -14 -3 -8 0 -17 5 -21 6 -3 9 -11 5 -16 -4 -6 -11 -6 -19 1
-9 8 -15 8 -20 0 -3 -5 5 -14 19 -19 36 -14 43 -47 14 -78 -12 -15 -18 -23
-11 -20 6 4 13 2 15 -5 2 -6 10 4 17 23 29 76 50 123 51 112 0 -7 8 -13 18
-14 13 0 12 -2 -5 -9 -27 -11 -30 -27 -5 -33 14 -4 13 -5 -4 -6 -24 -1 -44
-54 -37 -95 6 -28 -11 -36 -21 -11 -5 13 -10 14 -28 4 -13 -7 -24 -12 -25 -11
-2 1 -4 0 -5 -2 -6 -8 45 -65 53 -60 5 3 9 1 9 -5 0 -5 -9 -12 -19 -16 -25 -8
-34 -31 -21 -56 9 -16 7 -19 -10 -19 -18 0 -19 -3 -9 -22 11 -21 11 -22 -4
-10 -24 20 -42 4 -19 -16 24 -21 53 -80 43 -87 -5 -2 -14 7 -22 21 -14 27 -49
52 -49 35 0 -5 5 -13 10 -16 6 -3 10 -24 10 -46 0 -34 3 -39 23 -40 21 0 21
-1 2 -8 -11 -5 -24 -6 -30 -3 -5 4 -19 8 -30 9 l-20 3 20 -15 c45 -33 59 -55
35 -55 -5 0 -10 7 -10 15 0 8 -4 15 -9 15 -4 0 -25 13 -45 29 -27 22 -32 30
-21 35 8 3 15 1 15 -4 0 -6 12 -10 28 -10 l27 1 -25 14 c-37 21 -70 19 -70 -4
0 -11 5 -23 10 -26 12 -8 13 -55 1 -55 -5 0 -7 8 -4 19 3 13 -5 24 -31 39 -42
25 -47 16 -11 -18 30 -28 26 -38 -7 -16 -24 16 -24 16 -20 -14 2 -16 0 -30 -5
-30 -6 0 -8 -11 -5 -25 2 -15 0 -25 -7 -25 -6 0 -11 9 -11 20 0 25 -32 100
-42 100 -12 0 -10 -8 7 -34 15 -22 32 -126 18 -113 -3 4 -7 15 -8 25 -5 43
-62 159 -82 166 -27 11 -25 -1 6 -35 31 -33 40 -59 21 -59 -5 0 -10 5 -10 10
0 6 -5 10 -11 10 -6 0 -7 -5 -2 -13 12 -19 15 -57 4 -57 -5 0 -13 11 -18 25
-8 25 -8 25 -21 5 -7 -11 -8 -20 -3 -20 14 0 43 -95 38 -122 -3 -17 -5 -14 -6
10 0 17 -5 32 -11 32 -5 0 -19 19 -31 43 -12 23 -26 45 -32 48 -5 4 -6 12 -3
18 4 6 1 11 -8 11 -17 0 -13 -20 10 -54 7 -10 10 -25 7 -32 -8 -22 -33 3 -34
35 0 25 -1 25 -11 4 -8 -17 -6 -28 12 -52 13 -19 26 -28 33 -24 8 4 7 1 -1 -9
-11 -14 -10 -18 4 -26 11 -6 13 -11 5 -16 -6 -4 -11 -1 -11 6 0 9 -3 9 -10 -2
-8 -12 -10 -11 -10 7 0 12 -9 27 -19 33 -11 5 -21 20 -23 32 -4 25 -28 37 -28
13 0 -9 5 -13 11 -9 7 4 9 0 5 -13 -4 -12 2 -27 15 -42 12 -12 18 -25 15 -28
-9 -9 -57 38 -50 48 3 5 -2 9 -10 9 -9 0 -16 -3 -16 -8 0 -16 62 -82 77 -82
13 0 13 -3 3 -15 -7 -9 -8 -15 -2 -15 12 0 35 -61 26 -69 -4 -3 -9 0 -11 7 -3
6 -9 12 -15 12 -6 0 -7 -7 -4 -16 3 -9 -1 -25 -9 -37 l-15 -21 0 22 c0 12 5
22 11 22 8 0 8 4 0 14 -7 8 -8 16 -3 18 5 1 7 18 5 35 -3 18 -9 30 -14 27 -10
-6 -48 34 -49 51 0 12 -100 119 -105 113 -10 -10 19 -88 32 -88 13 0 13 3 3
15 -7 9 -8 15 -2 15 15 0 22 -25 11 -41 -5 -8 -9 -9 -9 -4 0 16 -20 -18 -20
-35 0 -12 2 -12 9 -1 5 8 11 9 15 3 3 -6 2 -14 -4 -17 -6 -4 -8 -15 -5 -24 4
-13 0 -17 -15 -16 -24 2 -40 15 -18 15 14 0 14 5 -3 41 -11 22 -17 49 -14 59
7 21 -29 65 -45 55 -6 -4 -10 -1 -10 4 0 17 28 13 40 -7 9 -14 10 -13 4 8 -3
14 -10 32 -15 40 -7 13 -8 12 -9 -2 0 -10 -4 -18 -10 -18 -14 0 -12 24 3 39
10 10 9 11 -4 6 -22 -8 -28 -53 -12 -85 7 -14 13 -20 14 -15 1 6 5 -6 9 -25 5
-21 5 -36 -1 -38 -5 -2 -7 -8 -4 -12 3 -5 0 -12 -6 -16 -9 -5 -10 -1 -7 14 4
12 0 26 -8 33 -8 6 -14 18 -14 25 0 8 -3 14 -7 14 -5 0 -14 4 -22 9 -12 8 -12
12 -2 25 16 19 11 68 -7 74 -11 3 -12 0 -3 -16 14 -26 14 -52 0 -52 -5 0 -8 4
-5 9 4 5 1 11 -5 13 -6 2 -12 23 -15 48 -2 24 -8 48 -14 54 -13 13 -4 -105 15
-201 18 -88 18 -116 -1 -48 l-14 50 6 -71 c6 -84 -2 -125 -22 -117 -8 3 -14
12 -14 20 0 13 -2 13 -17 2 -15 -13 -14 -11 1 19 11 22 15 44 11 63 -8 34 -25
50 -19 17 3 -17 1 -15 -10 7 -17 34 -20 59 -7 50 5 -3 13 0 17 6 4 7 3 9 -3 6
-6 -4 -14 1 -17 10 -4 9 -2 19 3 22 6 4 12 23 14 44 2 20 0 34 -4 31 -5 -3 -9
-20 -10 -37 l-1 -32 -10 28 c-7 21 -7 32 1 40 6 6 11 18 11 26 0 11 -4 10 -20
-4 -11 -10 -18 -21 -15 -25 2 -4 1 -30 -4 -58 -4 -29 -4 -52 0 -52 5 0 9 12
10 28 0 15 3 21 6 14 9 -23 -6 -60 -27 -67 -24 -8 -26 -41 -6 -89 9 -23 11
-38 4 -47 -8 -11 -9 -10 -4 3 3 10 1 20 -4 23 -11 7 -22 -28 -15 -48 4 -8 2
-18 -4 -22 -6 -3 -11 -17 -11 -31 0 -42 -15 -26 -16 19 -1 29 1 36 6 22 5 -12
6 6 4 43 -2 35 -7 68 -10 74 -4 7 -2 8 4 4 15 -9 14 0 -4 44 l-14 35 3 -31 c2
-17 -3 -36 -10 -43 -11 -10 -13 -8 -7 13 4 16 1 33 -7 43 -11 13 -11 15 -1 9
11 -6 13 5 12 50 -1 33 3 77 9 99 23 89 24 98 13 92 -5 -4 -16 -31 -22 -59 -7
-29 -17 -59 -23 -66 -7 -9 -7 -24 2 -48 10 -28 10 -37 -3 -56 -21 -29 -21 -59
-1 -52 11 5 13 2 9 -10 -3 -9 -11 -16 -18 -16 -6 0 -4 -5 4 -10 12 -8 12 -10
1 -10 -9 0 -12 -8 -9 -25 3 -13 2 -22 -2 -20 -4 2 -12 -7 -19 -22 -6 -14 -14
-23 -17 -20 -3 3 -1 15 6 27 6 11 10 28 8 38 -1 9 1 23 6 31 6 10 5 12 -2 7
-14 -8 -16 6 -3 19 12 13 22 85 12 85 -5 0 -11 -19 -14 -41 -3 -23 -12 -48
-20 -56 -13 -13 -14 -12 -10 11 3 15 2 26 -3 25 -21 -4 -28 2 -14 12 11 8 12
12 3 16 -22 8 -27 4 -31 -24 -5 -39 -12 -42 -12 -6 0 27 20 59 31 49 2 -2 4
16 5 41 1 42 0 44 -12 22 -7 -13 -13 -33 -14 -43 0 -11 -3 -16 -7 -13 -3 4
-12 2 -20 -4 -16 -14 -16 -10 1 32 7 19 11 40 9 47 -3 7 1 10 9 7 18 -7 55 62
41 76 -8 8 -13 7 -18 -2 -5 -8 -4 -10 3 -5 7 4 12 1 12 -9 0 -9 -4 -13 -10
-10 -5 3 -10 -1 -10 -9 0 -8 -9 -20 -20 -26 -11 -6 -20 -20 -20 -30 0 -11 -4
-20 -10 -20 -5 0 -10 7 -10 16 0 12 -7 8 -22 -12 -13 -15 -21 -37 -20 -47 2
-12 -1 -17 -7 -13 -6 4 -11 13 -11 21 0 7 -7 15 -15 19 -8 3 -15 1 -15 -4 0
-6 5 -10 10 -10 6 0 10 -5 10 -11 0 -6 -6 -9 -12 -6 -7 2 -21 -3 -31 -11 -17
-15 -17 -15 -8 11 6 15 18 41 27 58 8 17 13 33 11 36 -6 6 -32 -39 -29 -50 1
-4 -3 -7 -9 -7 -13 0 -2 53 12 58 5 2 9 11 9 20 0 14 -4 13 -18 -5 -19 -25
-51 -25 -66 0 -8 13 -6 21 7 34 18 17 18 17 12 -8 -8 -33 16 -46 33 -18 8 12
8 19 2 19 -15 0 -12 30 6 47 19 20 8 32 -38 43 l-33 7 27 11 c14 6 29 16 34
23 5 8 3 9 -7 3 -25 -15 -49 -15 -43 1 4 8 10 12 15 9 5 -3 9 0 9 5 0 6 -4 11
-10 11 -5 0 -10 14 -10 30 0 35 -8 37 -38 9 -19 -17 -23 -18 -28 -5 -3 8 -3
20 1 26 4 6 1 17 -5 25 -9 11 -9 19 -2 28 9 10 6 17 -8 27 -24 17 -25 33 -5
50 19 16 19 30 0 30 -19 0 -19 30 -1 56 11 14 18 16 26 8 9 -9 6 -17 -11 -33
-13 -11 -18 -21 -11 -21 16 0 48 50 36 58 -17 13 -14 37 8 51 18 11 20 11 15
-3 -4 -10 1 -20 13 -26 26 -14 29 -13 23 10 -3 11 -2 31 1 46 5 20 12 25 26
21 16 -4 20 0 20 18 0 13 5 27 10 30 6 3 10 -3 10 -14 0 -20 1 -20 18 -3 10
10 21 26 25 35 11 28 36 31 56 8 22 -26 31 -27 31 -3 1 11 6 6 15 -13 7 -16
14 -25 14 -20 1 6 14 16 31 23 32 14 41 35 14 30 -10 -2 -19 3 -22 11 -3 10 0
12 13 7 11 -4 22 -1 26 6 5 7 12 13 16 13 19 1 53 27 53 40 0 8 8 15 18 16
181 5 382 5 382 -1 0 -4 11 -11 25 -14 24 -6 36 -26 15 -26 -5 0 -10 5 -10 10
0 6 -4 10 -10 10 -5 0 -10 -9 -10 -21 0 -11 4 -17 10 -14 6 4 18 -11 28 -34 9
-22 22 -41 27 -41 6 0 17 -21 24 -47 11 -40 14 -45 21 -28 7 16 9 13 9 -16 1
-22 8 -42 18 -50 15 -12 16 -12 9 6 -4 11 -10 35 -13 53 -3 18 -10 35 -14 38
-11 6 -12 34 -1 34 4 0 13 -14 20 -30 15 -32 36 -39 46 -15 3 8 1 15 -3 15 -5
0 -11 -6 -14 -12 -2 -7 -4 6 -5 29 -1 36 2 42 25 48 14 3 31 1 39 -6 19 -15
18 -40 -1 -33 -22 9 -18 -4 9 -31 14 -14 28 -21 31 -15 6 9 -3 56 -14 75 -3 6
1 3 11 -7 22 -25 31 -23 17 5 -8 14 3 8 29 -18 26 -25 42 -50 43 -65 1 -24 1
-24 9 4 11 34 0 54 -46 85 -38 26 -52 57 -34 75 10 8 11 8 6 -2 -11 -19 3 -50
25 -57 11 -4 30 -17 42 -29 22 -23 94 -46 82 -26 -3 6 -14 10 -23 11 -14 0
-13 2 3 8 11 5 24 6 29 3 5 -3 6 0 2 6 -4 7 -14 12 -22 12 -19 0 -18 15 4 36
14 15 14 17 1 12 -17 -7 -62 26 -72 52 -3 9 -6 4 -6 -12 -1 -29 -14 -37 -27
-17 -3 6 -1 15 6 19 11 7 11 22 1 82 -7 40 -17 78 -23 83 -11 11 -7 -47 7 -77
4 -10 3 -18 -3 -18 -10 0 -26 54 -24 82 1 9 -5 19 -13 22 -12 4 -15 -3 -15
-34 0 -21 -5 -42 -11 -46 -7 -4 -9 0 -5 14 4 12 1 33 -7 48 -13 26 -14 26 -20
5 -3 -11 -1 -24 4 -27 14 -8 11 -24 -5 -24 -17 0 -30 31 -16 40 9 6 8 56 -3
122 -2 12 -2 17 0 11 7 -20 23 -15 23 7 0 11 2 20 5 20 13 0 61 -26 68 -37 12
-20 30 -16 22 5 -4 9 -8 22 -8 29 0 9 -6 9 -19 2 -17 -9 -18 -8 -9 10 6 11 8
27 5 35 -7 18 -24 22 -24 6 0 -5 5 -10 10 -10 6 0 10 -5 10 -11 0 -7 -11 -8
-30 -4 -23 5 -30 3 -30 -9 0 -20 -24 -21 -39 -2 -9 11 -9 20 -2 35 10 17 8 19
-11 16 -12 -3 -31 3 -42 13 -18 16 -19 16 -13 0 4 -10 2 -18 -3 -18 -9 0 -12
11 -14 58 -1 9 4 17 9 18 6 0 30 10 55 21 38 17 96 35 121 37 3 1 21 12 40 25
29 20 39 37 58 98 12 41 20 77 17 81 -3 3 -6 0 -6 -6 0 -7 -21 -11 -57 -10
-32 1 -69 -2 -83 -6 -59 -18 -130 -26 -200 -22 -52 3 -83 0 -100 -9 -14 -8
-20 -15 -15 -15 10 0 -19 -19 -65 -41 -30 -15 -173 -15 -178 0 -2 6 -13 11
-24 11 -17 0 -34 11 -95 60 -7 6 -14 6 -17 1 -4 -5 -15 -7 -26 -4 -14 4 -20 0
-20 -11 0 -11 -10 -16 -32 -17 -65 -3 -133 -7 -148 -10 -8 -1 -34 1 -58 5 -23
5 -42 4 -41 -1 1 -4 1 -15 0 -23 -2 -24 -21 9 -21 37 0 28 -15 38 -17 12 -1
-11 -9 -50 -17 -87 -22 -96 -26 -161 -12 -175 7 -7 11 -18 8 -25 -2 -7 6 -12
22 -12 14 0 26 -5 26 -10 0 -7 6 -7 20 0 11 6 20 7 20 3 0 -4 5 -2 11 4 6 6
19 8 30 6 18 -5 17 -8 -9 -42 -41 -52 -49 -69 -21 -45 34 30 59 38 53 16 -5
-14 -3 -14 10 2 21 26 29 16 16 -19 -6 -15 -8 -30 -5 -33 3 -3 5 0 5 7 0 6 10
10 23 8 12 -2 16 -2 10 0 -22 8 -14 23 11 21 21 -2 23 -5 15 -33 -5 -16 -9
-30 -9 -31 0 -1 -11 -13 -25 -28 -14 -15 -25 -32 -24 -39 0 -9 2 -9 6 1 2 6
11 12 19 12 8 0 14 5 14 11 0 5 5 7 12 3 7 -4 8 -3 4 5 -10 15 15 81 30 81 12
0 12 -59 -1 -95 -5 -15 -4 -16 3 -6 8 11 11 10 15 -5 4 -16 5 -16 6 4 0 12 5
22 10 22 4 0 6 11 4 24 -6 29 13 44 20 16 3 -13 1 -18 -6 -13 -7 4 -8 0 -4
-11 4 -9 0 -30 -8 -46 -8 -16 -15 -42 -15 -59 0 -16 -5 -33 -11 -37 -8 -5 -10
6 -7 35 2 22 0 41 -4 41 -5 0 -8 -9 -8 -20 0 -11 -4 -20 -9 -20 -5 0 -12 -17
-17 -37 -4 -23 -9 -31 -11 -20 -3 9 -9 17 -14 17 -6 0 -7 -9 -4 -20 3 -11 3
-20 -2 -20 -4 0 -9 -14 -10 -32 -1 -17 -8 -36 -14 -42 -8 -8 -9 1 -4 34 13 79
13 119 0 114 -7 -3 -18 -17 -24 -31 -17 -36 -24 -22 -12 23 6 21 9 40 6 42 -9
10 -23 -11 -30 -45 -4 -20 -13 -46 -21 -57 -16 -24 -19 -14 -3 15 7 15 7 24
-2 35 -9 11 -8 14 3 14 7 0 14 10 15 23 0 12 -1 16 -4 10 -3 -9 -10 -10 -24
-3 -15 9 -19 7 -19 -5 0 -9 -8 -24 -17 -33 -16 -16 -16 -16 -10 0 3 10 2 20
-3 23 -6 4 -10 -1 -10 -9 0 -9 -4 -16 -10 -16 -17 0 -11 21 13 42 18 16 19 19
3 14 -16 -5 -18 -2 -14 23 2 17 1 28 -4 25 -4 -3 -8 -11 -8 -18 0 -23 -52
-132 -57 -118 -3 7 0 26 6 42 12 37 7 38 -25 3 -44 -48 -61 -101 -71 -220 -5
-66 3 -78 34 -48 8 8 19 13 23 10 15 -9 -1 -35 -20 -35 -42 0 -50 -11 -50 -63
0 -66 -8 -57 -15 18 -5 61 -15 88 -15 42 0 -15 -4 -27 -8 -27 -11 0 -54 -36
-53 -44 1 -8 -6 -9 -22 -3 -9 3 -9 13 -1 46 7 24 8 44 2 47 -5 3 -8 11 -7 17
1 7 1 27 0 46 -1 33 -2 34 -17 15 -15 -19 -16 -19 -9 1 4 11 9 38 11 60 3 22
7 46 10 54 3 10 -1 9 -15 -3 -18 -16 -20 -29 -18 -85 4 -67 -7 -121 -24 -121
-5 0 -9 -8 -9 -17 0 -15 2 -16 10 -3 16 26 21 4 6 -31 -13 -29 -15 -30 -16
-11 0 29 -20 19 -20 -11 0 -33 -13 -48 -30 -36 -11 8 -12 12 -2 16 6 2 12 13
12 24 0 10 5 19 10 19 6 0 10 7 10 15 0 8 -4 15 -10 15 -20 0 -9 29 12 32 28
4 35 35 28 123 -6 73 -10 67 -25 -33 -7 -41 -25 -50 -25 -11 0 12 -7 19 -20
19 -11 0 -20 -5 -20 -11 0 -5 -4 -7 -10 -4 -15 9 -12 42 5 49 8 3 14 13 14 23
-1 17 -2 17 -6 0 -5 -18 -5 -18 -19 0 -12 16 -13 16 -14 2 0 -9 -7 -20 -16
-23 -16 -6 -16 4 2 61 5 17 5 17 -6 1 -15 -24 -30 -23 -30 3 0 19 -2 20 -16 8
-15 -12 -16 -10 -10 18 4 18 3 40 -3 50 -9 16 -10 16 -11 -4 0 -13 -5 -23 -11
-23 -6 0 -9 -7 -5 -15 3 -8 1 -15 -4 -15 -6 0 -10 9 -10 19 0 11 -4 23 -10 26
-5 3 -11 18 -11 33 -1 20 -5 13 -14 -23 -13 -48 -13 -49 -15 -15 -1 19 -1 53
0 74 2 34 0 38 -13 28 -18 -15 -31 -3 -16 15 16 19 39 16 39 -4 1 -16 2 -16
11 1 12 19 -1 36 -28 36 -18 0 -16 20 7 58 25 41 25 52 -1 52 -15 0 -19 4 -15
16 5 13 1 15 -20 10 -16 -4 -23 -3 -20 3 4 5 2 12 -4 16 -5 3 -24 -10 -41 -29
-17 -20 -54 -47 -83 -61 -48 -24 -50 -24 -22 -3 47 37 116 108 116 119 0 5
-10 1 -22 -11 -27 -25 -30 -22 -19 16 6 21 4 33 -6 43 -12 11 -13 15 -2 22 10
6 7 8 -9 6 -12 -1 -25 -10 -28 -21 -8 -24 -33 -51 -40 -43 -8 8 24 65 43 76
15 9 16 10 2 11 -9 0 -35 -18 -59 -40 -48 -44 -69 -46 -27 -2 16 16 27 39 27
55 0 17 5 27 15 27 22 0 19 9 -12 37 -19 18 -23 27 -13 33 10 6 10 9 0 15 -8
5 -18 1 -25 -8 -13 -19 -35 -23 -35 -7 0 6 5 10 10 10 6 0 10 5 10 10 0 6 -12
8 -27 4 -16 -3 -23 -2 -18 3 6 4 12 24 13 43 2 19 8 37 13 38 5 2 9 8 9 14 0
6 -11 3 -25 -6 -30 -20 -35 -20 -35 -1 0 8 -4 15 -10 15 -5 0 -10 -13 -10 -30
0 -20 -10 -39 -32 -60 -17 -17 -33 -29 -35 -26 -9 9 18 56 33 56 10 0 14 5 11
15 -4 8 -2 17 3 20 6 4 10 14 9 23 0 13 -3 12 -11 -5 -12 -26 -44 -32 -34 -8
4 12 2 13 -12 6 -16 -8 -17 -3 -16 59 1 37 7 77 12 87 8 15 6 22 -9 31 -20 13
-26 57 -9 67 7 4 7 11 2 18 -5 7 -9 54 -8 105 1 67 -2 91 -10 88 -8 -3 -8 4 2
22 10 20 12 49 7 117 -3 49 -6 117 -7 150 0 42 -5 64 -16 72 -9 8 -11 15 -5
20 11 9 14 36 16 131 1 34 5 62 9 62 4 0 4 17 1 38 -4 20 -6 70 -5 110 0 45
-3 72 -10 72 -6 0 -4 5 4 10 10 6 11 10 3 10 -7 0 -13 7 -13 15 0 8 4 15 9 15
5 0 7 9 4 20 -3 11 0 20 6 20 6 0 11 5 11 10 0 6 -7 10 -16 10 -13 0 -14 3 -5
13 6 8 8 16 5 20 -3 3 -1 14 5 24 9 16 10 15 11 -9 0 -15 8 -33 18 -40 9 -7
17 -22 17 -33 0 -13 8 -21 24 -23 19 -3 22 0 17 13 -3 9 -6 23 -6 31 0 8 -3
13 -7 13 -22 -4 -31 4 -37 28 -5 16 -3 29 5 34 9 5 8 11 -4 24 -10 9 -17 25
-17 36 0 11 -4 29 -10 39 -7 13 -6 21 5 30 16 13 9 40 -10 40 -8 0 -10 9 -7
25 7 37 -6 75 -28 83 -14 5 -17 11 -10 22 9 13 11 13 19 0 6 -8 13 -11 17 -7
4 4 -1 13 -10 20 -21 15 -25 65 -6 77 7 4 9 16 5 29 -3 12 -2 21 4 21 13 0 24
36 27 90 3 51 21 174 29 201 4 12 1 19 -6 19 -8 0 -7 6 4 18 16 18 17 20 17
53 0 11 4 18 9 15 8 -5 19 32 27 89 1 6 7 26 15 45 7 19 12 39 11 44 -2 5 2
12 8 16 6 4 12 17 13 28 1 12 7 22 14 22 7 0 13 5 13 10 0 6 -4 10 -10 10 -5
0 -10 5 -10 11 0 5 5 7 10 4 6 -3 13 2 16 12 3 10 10 26 15 36 5 10 7 23 3 29
-5 8 -1 9 10 5 12 -5 16 -3 13 5 -9 26 34 89 111 161 28 28 52 56 52 63 0 7 9
16 20 19 11 3 20 11 20 16 0 5 5 9 11 9 6 0 25 11 42 24 37 27 76 39 91 27 16
-12 57 -20 50 -10 -3 5 0 9 6 9 7 0 14 -9 17 -20 3 -11 9 -20 14 -20 5 0 6 6
3 14 -3 8 -1 23 5 33 9 16 10 16 11 -4 0 -16 6 -23 20 -23 14 0 18 -5 13 -17
-5 -12 -2 -15 9 -10 10 3 19 0 22 -10 4 -9 13 -13 22 -9 10 4 23 -3 35 -16 10
-13 18 -19 19 -14 0 6 -9 19 -20 31 -19 21 -20 23 -3 36 15 12 16 12 10 -3 -3
-10 -2 -18 3 -18 6 0 10 7 10 16 0 8 4 13 9 9 6 -3 8 -18 6 -34 -4 -35 44 -94
69 -85 11 4 16 1 16 -10 0 -9 5 -16 10 -16 6 0 10 6 10 13 0 7 3 8 8 2 9 -13
31 -19 57 -15 11 1 33 2 48 3 19 0 26 4 23 13 -3 8 -1 14 4 14 6 0 10 -7 10
-15 0 -8 3 -15 8 -15 4 -1 66 -3 137 -5 148 -5 168 -7 187 -21 7 -5 27 -8 43
-6 29 2 127 3 245 1 30 0 71 2 91 6 23 4 48 2 72 -9 35 -14 37 -14 48 5 9 18
17 20 47 14 21 -4 57 -9 82 -11 25 -2 64 -6 88 -9 51 -7 54 0 7 19 -19 8 -35
20 -35 25 0 15 23 14 39 -1 11 -10 14 -10 18 -1 3 9 10 10 22 3 10 -5 21 -6
25 -3 3 3 6 1 6 -5 0 -7 8 -12 18 -12 10 0 22 -3 26 -7 4 -4 25 -8 47 -9 29
-2 45 -9 55 -23 17 -24 44 -28 44 -7 0 10 7 12 23 8 20 -5 21 -4 8 11 -7 9
-20 17 -27 17 -8 0 -14 4 -14 9 0 5 -15 16 -32 24 -28 13 -30 17 -15 23 10 4
23 2 30 -5 6 -6 16 -11 21 -11 15 1 -36 40 -51 40 -7 0 -13 -4 -13 -10 0 -5
-7 -7 -15 -4 -8 4 -12 10 -9 15 3 5 1 9 -4 9 -5 0 -12 9 -15 21 -5 19 -4 20
12 5 10 -9 29 -16 44 -16 14 0 32 -7 41 -15 8 -8 19 -15 24 -15 6 0 9 -14 8
-31 0 -18 5 -34 11 -36 19 -7 29 27 12 38 -8 5 -9 9 -3 9 5 0 15 -5 22 -12 9
-9 12 -8 12 4 0 9 6 19 13 21 9 4 9 6 0 6 -7 1 -13 8 -13 16 0 14 3 13 24 -2
13 -10 21 -22 18 -27 -3 -5 2 -7 11 -3 10 3 17 2 17 -3 0 -11 55 -41 63 -34 2
3 14 -7 26 -22 12 -15 21 -21 21 -13 0 18 -35 49 -55 49 -14 0 -31 12 -80 56
-13 12 -30 24 -37 27 -7 2 -10 7 -7 11 4 4 24 0 45 -8 22 -8 65 -22 96 -31 32
-10 63 -24 69 -31 6 -8 18 -14 25 -14 8 0 20 -11 26 -25 12 -27 23 -31 33 -15
8 14 -21 60 -38 60 -6 0 -23 14 -36 30 -13 17 -28 30 -35 30 -6 0 -3 -5 7 -11
9 -5 17 -15 17 -21 0 -6 -9 -4 -22 4 -13 8 -44 18 -70 21 -27 4 -70 18 -98 32
-32 16 -65 25 -92 24 -48 -1 -85 4 -93 13 -3 3 -25 1 -48 -4 -23 -5 -62 -6
-87 -3 -25 4 -119 13 -210 20 l-165 12 145 2 c80 1 194 4 253 6 83 4 117 1
145 -11 20 -8 46 -13 58 -10 12 3 35 -1 50 -9 16 -8 36 -15 45 -15 8 0 20 -5
27 -12 6 -6 15 -8 19 -4 9 9 -14 25 -49 32 -40 9 -24 24 17 17 28 -5 35 -2 35
11 0 13 3 14 13 6 6 -6 21 -17 31 -24 17 -12 16 -12 -15 -8 -19 2 -30 1 -26
-4 5 -5 25 -10 45 -10 21 -1 47 -5 60 -9 32 -10 28 10 -5 24 -42 18 -97 68
-84 76 6 3 14 0 17 -8 3 -9 19 -21 35 -27 16 -7 26 -16 23 -21 -3 -5 1 -9 8
-9 22 -1 65 -42 50 -48 -17 -6 16 -23 90 -46 31 -9 62 -24 69 -32 6 -8 18 -14
25 -14 8 0 14 -5 14 -11 0 -5 5 -7 10 -4 16 10 3 23 -53 55 -29 16 -44 30 -35
30 9 0 19 -4 23 -10 3 -5 12 -7 20 -4 7 3 27 -8 43 -25 16 -17 34 -31 41 -31
6 0 11 -4 11 -10 0 -5 5 -10 10 -10 16 0 11 13 -18 47 -16 17 -37 50 -47 72
-12 27 -25 41 -37 41 -11 0 -18 7 -18 19 0 13 -20 32 -57 55 -32 20 -62 36
-67 36 -5 0 18 -26 53 -58 61 -57 98 -109 85 -121 -4 -3 -9 0 -11 7 -3 6 -17
12 -31 13 -23 0 -24 2 -8 8 12 5 16 10 9 14 -6 4 -19 4 -29 0 -14 -5 -16 -3
-11 11 5 13 3 17 -7 13 -11 -4 -13 -1 -9 10 5 12 1 14 -18 8 -14 -3 -19 -3
-12 2 8 6 1 15 -23 31 -19 12 -34 18 -34 13 0 -12 87 -101 98 -101 5 0 9 -7 9
-15 0 -22 -10 -18 -37 15 -14 16 -30 29 -37 30 -18 0 -54 69 -45 86 7 13 12
12 34 -6 39 -30 51 -24 17 9 -35 36 -38 55 -6 46 20 -5 20 -5 -3 9 -14 9 -32
15 -41 16 -19 0 -44 26 -32 32 4 3 2 3 -6 1 -7 -2 -20 5 -27 14 -8 11 -13 13
-14 6 0 -7 -5 -13 -12 -13 -9 0 -9 3 0 12 19 19 15 25 -27 41 -21 9 -45 22
-53 30 -13 13 -70 40 -133 62 -11 4 -15 9 -9 12 6 2 36 -5 65 -17 65 -24 70
-24 63 -5 -4 8 -2 15 4 15 13 0 33 -26 30 -38 -3 -11 40 -52 55 -52 5 0 4 7
-3 15 -16 20 4 20 24 0 8 -8 34 -17 58 -19 24 -3 48 -5 53 -6 6 -1 -3 -6 -19
-10 -16 -5 -43 -7 -60 -4 -28 4 -27 3 9 -11 22 -9 45 -17 50 -18 6 -2 15 -6
22 -10 6 -4 19 -4 30 -1 14 6 16 4 6 -6 -10 -11 3 -28 67 -89 89 -85 97 -92
125 -110 17 -11 17 -12 2 -7 -14 4 -18 1 -15 -12 2 -11 13 -17 30 -18 28 -1
58 -19 58 -35 0 -9 21 -38 53 -71 9 -10 14 -18 10 -18 -3 0 2 -9 13 -21 10
-12 18 -24 16 -28 -1 -3 9 -7 24 -9 20 -3 25 -8 21 -23 -7 -27 34 -84 61 -83
11 0 19 -3 16 -8 -3 -4 2 -11 10 -14 9 -3 16 -11 16 -16 0 -7 -5 -6 -14 1 -10
9 -17 7 -27 -5 -12 -14 -9 -20 21 -45 19 -16 29 -29 22 -29 -7 0 -12 -4 -12
-10 0 -5 7 -10 15 -10 18 0 20 -17 3 -22 -9 -3 -8 -9 5 -22 21 -22 22 -36 1
-36 -23 0 -6 -20 19 -21 17 -1 18 -2 5 -6 -10 -2 -18 -8 -18 -13 0 -5 8 -14
18 -19 14 -9 13 -10 -11 -11 -17 0 -26 -4 -22 -10 4 -6 15 -8 26 -5 10 4 27 2
36 -4 17 -10 17 -10 1 -11 -24 0 -23 -12 2 -30 23 -17 27 -35 5 -26 -23 8 -18
-12 10 -40 31 -31 31 -34 3 -34 -22 -1 -22 -1 -4 -15 11 -8 17 -18 13 -21 -4
-4 2 -15 13 -24 18 -15 18 -18 5 -24 -9 -3 -13 -11 -9 -17 4 -8 -1 -9 -17 -4
-22 6 -22 5 6 -19 21 -18 25 -25 14 -26 -12 0 -15 -7 -11 -27 2 -16 9 -32 16
-38 6 -5 12 -21 14 -35 1 -14 11 -43 21 -65 11 -22 27 -73 36 -113 10 -40 21
-75 26 -78 5 -3 7 -9 4 -14 -3 -4 1 -10 8 -13 9 -3 13 -21 12 -51 -1 -26 2
-49 7 -52 4 -3 8 -17 7 -32 -2 -48 11 -116 26 -132 17 -18 20 -50 6 -50 -5 0
-12 5 -14 10 -3 6 -4 5 -3 -2 1 -7 12 -14 24 -16 12 -2 22 -10 22 -18 0 -12
-4 -12 -20 -4 -16 8 -20 8 -20 -4 0 -8 4 -17 10 -21 5 -3 6 -13 3 -22 -4 -11
-2 -14 8 -11 17 6 48 -22 52 -48 1 -10 8 -28 15 -39 10 -18 11 -16 12 17 0 20
4 47 9 60 5 13 9 26 10 30 1 4 6 21 11 37 9 31 3 71 -10 71 -4 0 -17 -9 -30
-20 -31 -27 -38 -25 -46 8 -4 15 -11 33 -17 40 -12 15 5 16 21 0 15 -15 28 -3
15 14 -11 15 9 75 24 70 4 -1 9 52 10 117 1 66 6 129 12 139 8 15 7 23 -4 32
-21 18 -19 41 2 33 17 -7 17 -6 1 18 -10 16 -13 31 -8 39 4 7 6 19 3 27 -3 7
2 13 12 13 10 0 13 4 8 13 -4 6 -9 41 -10 77 -1 67 -4 88 -15 105 -7 12 -4 52
5 61 3 3 -1 17 -10 30 -9 15 -13 34 -9 48 4 18 0 31 -16 47 -19 18 -20 21 -5
15 10 -3 23 -6 28 -6 6 0 7 -4 4 -10 -3 -5 3 -10 15 -10 18 0 19 3 10 20 -6
11 -16 20 -22 20 -7 0 -7 4 1 14 9 11 4 21 -25 49 -21 19 -34 39 -30 46 9 14
36 15 36 1 0 -5 5 -10 12 -10 6 0 2 10 -10 23 -14 14 -19 30 -16 43 4 14 0 23
-10 27 -19 8 -21 -4 -3 -22 10 -11 9 -13 -3 -9 -8 3 -16 17 -18 32 -2 18 0 26
7 21 6 -3 11 -2 11 4 0 5 -8 15 -17 20 -16 9 -16 10 -1 11 11 0 15 6 11 20 -3
11 -10 20 -15 20 -6 0 -7 11 -4 26 6 21 4 25 -8 21 -11 -4 -16 -1 -16 11 0 9
-12 28 -25 41 -14 13 -25 31 -25 40 0 14 2 14 10 1 5 -8 10 -10 10 -5 0 6 5 3
10 -7 7 -10 17 -14 32 -10 l21 5 -23 19 c-12 10 -20 21 -16 25 3 4 12 1 18 -5
21 -21 29 -13 12 13 -16 24 -16 25 2 19 16 -6 17 -5 7 7 -7 7 -13 19 -13 27 0
8 -8 21 -17 29 -14 11 -15 16 -5 20 10 4 9 9 -4 24 -10 11 -12 19 -6 19 18 0
14 21 -5 36 -26 20 -35 17 -22 -7 8 -16 8 -24 -1 -33 -8 -8 -10 -7 -5 4 3 10
-5 26 -20 40 -14 13 -25 33 -24 44 0 20 1 20 9 -1 5 -13 14 -23 20 -23 6 0 8
5 4 11 -4 8 1 9 17 5 23 -7 23 -6 -3 16 -16 13 -28 29 -28 36 0 7 -3 11 -7 10
-5 -2 -9 1 -10 5 -1 5 -9 14 -19 21 -11 8 -14 18 -9 26 6 9 4 11 -5 5 -8 -5
-19 0 -29 12 -9 11 -41 41 -72 66 -31 26 -59 56 -62 67 -6 25 20 15 28 -10 3
-11 14 -22 25 -25 10 -3 21 -12 24 -20 7 -20 26 -19 26 0 0 8 -6 14 -12 13 -7
-2 -13 4 -13 12 0 8 -11 27 -25 42 -48 53 -60 68 -60 77 0 5 -17 15 -37 22
-37 12 -37 13 -13 20 14 4 20 7 14 8 -6 1 -24 12 -40 26 -16 14 -33 25 -37 25
-5 0 -5 5 -2 10 3 6 0 10 -8 10 -8 0 -14 8 -13 17 0 10 -23 34 -59 59 l-60 43
-92 1 c-64 0 -93 -4 -96 -12 -3 -7 -6 -8 -6 -3 -1 7 -16 9 -37 7 -24 -3 -32
-7 -23 -13 7 -4 10 -11 7 -15 -4 -4 -18 0 -30 8 -25 16 -81 21 -72 7 3 -5 18
-9 33 -9 16 0 40 -9 54 -20 14 -11 30 -20 37 -20 6 0 8 -5 5 -11 -4 -6 2 -13
14 -16 12 -3 18 -10 14 -17 -15 -24 -12 -46 9 -61 26 -18 47 -20 30 -3 -19 19
-14 30 8 18 11 -6 18 -15 15 -19 -6 -11 19 -61 37 -72 30 -20 30 -7 -2 26 -18
19 -31 37 -28 40 7 8 78 -53 78 -67 0 -5 14 -27 31 -48 17 -21 28 -43 25 -49
-4 -5 10 -27 29 -48 19 -21 35 -44 35 -50 0 -7 4 -13 9 -13 5 0 12 -8 15 -17
6 -16 6 -16 -12 0 -10 9 -24 17 -30 17 -7 0 -12 4 -12 9 0 19 -97 109 -109
102 -9 -6 -8 -11 4 -21 8 -7 15 -19 15 -27 0 -10 -17 0 -45 26 -24 22 -51 41
-60 41 -8 0 -15 7 -15 15 0 12 5 13 27 4 15 -6 33 -15 40 -21 8 -6 16 -8 20
-4 4 3 -4 14 -18 24 -26 19 -28 19 -65 21 -17 1 -28 8 -31 21 -3 11 -11 20
-18 20 -7 0 -15 7 -19 15 -9 25 16 17 51 -17 18 -18 33 -27 33 -22 0 13 -50
59 -72 67 -10 4 -18 2 -18 -3 0 -15 -26 -12 -40 4 -6 8 -18 12 -25 10 -8 -3
-22 -1 -32 5 -17 10 -17 10 0 11 9 0 17 3 17 6 0 10 -44 43 -57 44 -7 0 -13
10 -14 23 0 12 -3 16 -6 10 -8 -21 -20 -15 -19 10 1 18 -5 22 -37 25 -21 2
-35 7 -31 13 6 10 67 2 97 -13 10 -5 16 -12 13 -16 -2 -4 18 -7 44 -7 26 0 46
3 43 8 -2 4 -8 7 -13 7 -4 0 -32 16 -61 35 -43 28 -62 35 -99 33 -36 -1 -39
-2 -12 -5 17 -2 32 -9 32 -15 0 -10 -14 -10 -140 7 -25 3 -21 1 15 -10 l50
-14 -50 5 c-78 7 -149 19 -162 27 -6 4 -14 3 -18 -3 -4 -7 -13 -7 -26 1 -20
10 -471 7 -554 -5 -50 -7 -183 -32 -210 -40 -11 -4 -6 0 10 8 17 8 55 18 85
22 l55 8 -45 7 c-25 4 -193 8 -374 8 -252 1 -332 -1 -344 -11 -12 -10 -14 -10
-8 0 10 16 -55 17 -72 0 -10 -10 -14 -10 -21 0 -6 9 -51 12 -185 11 l-177 -1
-26 -54z m2522 36 c16 0 26 -36 17 -60 -7 -17 -11 -16 -67 12 -70 34 -93 54
-53 44 14 -3 33 -9 42 -12 11 -4 16 -1 16 11 0 12 5 15 16 11 9 -3 21 -6 29
-6z m-2276 -21 c-22 -14 -33 -10 -19 6 7 8 17 12 22 9 6 -4 5 -10 -3 -15z
m1252 -6 c11 -15 11 -16 -1 -5 -8 7 -42 12 -81 12 -45 0 -69 -4 -72 -12 -3 -8
-6 -6 -6 5 -1 15 9 17 73 17 58 0 76 -4 87 -17z m245 -10 c-7 -7 -65 7 -71 17
-3 4 13 3 35 -2 23 -6 39 -13 36 -15z m-416 1 c0 -2 -7 -4 -15 -4 -8 0 -15 4
-15 10 0 5 7 7 15 4 8 -4 15 -8 15 -10z m-1044 -31 c-14 -15 -26 -24 -26 -19
0 12 42 57 48 52 2 -3 -8 -17 -22 -33z m2329 25 c14 -6 25 -17 25 -25 0 -18
-2 -17 -36 12 -32 27 -29 31 11 13z m-2405 -8 c0 -9 -31 -30 -44 -30 -3 0 2 9
11 20 19 21 33 26 33 10z m1745 -17 c-9 -8 -18 -13 -21 -10 -8 8 19 36 29 30
4 -2 0 -11 -8 -20z m-637 10 c-10 -2 -26 -2 -35 0 -10 3 -2 5 17 5 19 0 27 -2
18 -5z m581 -9 c43 -9 12 -17 -57 -15 -80 2 -132 10 -132 21 0 8 146 3 189 -6z
m298 10 c-3 -3 -12 -4 -19 -1 -8 3 -5 6 6 6 11 1 17 -2 13 -5z m393 -15 c0
-14 -17 -10 -23 5 -4 10 -1 13 9 9 7 -3 14 -9 14 -14z m-1299 1 c17 0 28 -4
25 -9 -6 -10 -73 2 -84 15 -4 4 1 4 11 1 10 -4 32 -7 48 -7z m409 0 c0 -5 -8
-10 -17 -10 -15 0 -16 2 -3 10 19 12 20 12 20 0z m790 0 c0 -5 -7 -10 -15 -10
-8 0 -15 5 -15 10 0 6 7 10 15 10 8 0 15 -4 15 -10z m-1007 -7 c-7 -2 -19 -2
-25 0 -7 3 -2 5 12 5 14 0 19 -2 13 -5z m72 -3 c3 -5 -1 -10 -9 -10 -9 0 -16
5 -16 10 0 6 4 10 9 10 6 0 13 -4 16 -10z m635 0 c13 -9 13 -10 0 -9 -8 1 -26
5 -40 9 l-25 8 25 1 c14 0 32 -4 40 -9z m-977 -7 c-7 -2 -21 -2 -30 0 -10 3
-4 5 12 5 17 0 24 -2 18 -5z m517 -12 l55 -6 -40 -7 c-47 -8 -121 4 -138 22
-10 10 -4 11 28 5 22 -4 65 -10 95 -14z m342 4 c-2 -5 -11 -9 -20 -7 -23 3
-38 2 -101 -4 -40 -5 -52 -3 -46 6 5 7 21 9 47 5 30 -5 39 -4 33 4 -5 9 7 11
42 9 26 -2 47 -7 45 -13z m522 1 c19 -8 51 -30 72 -50 21 -20 42 -36 46 -36 5
0 38 -29 73 -65 36 -36 69 -65 74 -65 5 0 15 -13 22 -29 7 -16 18 -27 24 -25
6 3 20 -5 30 -16 l19 -21 -44 3 c-39 3 -45 6 -44 25 0 18 -2 20 -13 12 -9 -8
-13 -8 -13 0 0 6 -7 11 -16 11 -8 0 -12 5 -9 10 8 13 -38 76 -75 105 -14 11
-38 34 -54 52 -30 33 -72 50 -46 18 8 -9 9 -15 2 -15 -6 0 -18 10 -26 22 -12
17 -13 24 -3 30 9 6 8 8 -3 9 -77 7 -94 14 -70 29 19 12 15 12 54 -4z m106 -6
c12 -8 11 -10 -7 -10 -13 0 -23 5 -23 10 0 13 11 13 30 0z m-2555 -10 c-3 -5
-12 -10 -18 -10 -7 0 -6 4 3 10 19 12 23 12 15 0z m915 0 c-8 -5 -19 -10 -25
-10 -5 0 -3 5 5 10 8 5 20 10 25 10 6 0 3 -5 -5 -10z m506 -13 c1 -9 -4 -17
-12 -17 -9 0 -13 4 -10 9 4 5 -6 14 -21 19 -28 10 -28 10 6 9 24 -2 35 -8 37
-20z m574 13 c-11 -7 -8 -11 15 -19 41 -15 58 -25 63 -39 2 -7 -3 -12 -12 -12
-9 0 -16 4 -16 10 0 5 -7 6 -17 3 -11 -4 -14 -3 -9 5 5 8 -3 12 -25 12 -18 0
-29 3 -25 7 3 4 -4 13 -16 20 -22 13 -22 14 -1 8 12 -3 24 -1 28 5 3 5 12 10
18 10 7 0 6 -4 -3 -10z m395 -6 c14 -9 25 -20 25 -25 0 -17 -25 -9 -49 16 -26
28 -13 33 24 9z m-923 -6 c3 -9 33 -12 99 -10 52 1 88 -1 80 -5 -11 -5 -11 -7
0 -14 11 -7 10 -9 -3 -9 -10 0 -18 5 -18 11 0 11 -91 8 -141 -6 -23 -6 -27 -3
-31 19 -5 26 7 37 14 14z m575 6 c-3 -3 -12 -4 -19 -1 -8 3 -5 6 6 6 11 1 17
-2 13 -5z m43 -4 c0 -5 -7 -10 -16 -10 -8 0 -12 5 -9 10 3 6 10 10 16 10 5 0
9 -4 9 -10z m-340 -20 c0 -5 20 -15 45 -21 25 -6 45 -16 45 -21 0 -6 -7 -8
-15 -4 -20 7 -19 -4 3 -21 15 -13 15 -13 -8 -6 -14 4 -37 7 -52 6 -47 -3 -50
-3 -170 1 -65 2 -118 -1 -118 -5 0 -5 -12 -9 -27 -10 -26 0 -26 -2 11 -18 27
-12 35 -19 25 -23 -8 -3 -26 0 -40 8 -13 7 -40 13 -60 14 -26 0 -44 7 -60 25
-13 13 -35 25 -49 26 -14 0 -19 3 -12 6 6 2 12 11 12 19 0 8 5 14 11 14 5 0 7
-5 3 -12 -5 -8 -2 -9 12 -3 32 13 124 18 124 6 0 -6 -19 -11 -45 -11 -25 0
-45 -4 -45 -9 0 -4 103 -8 229 -7 126 1 227 4 224 9 -2 4 -17 7 -32 7 -44 0
-91 12 -91 22 0 6 11 7 25 4 14 -4 25 -2 25 4 0 5 7 10 15 10 8 0 15 -4 15
-10z m377 4 c-3 -3 -12 -4 -19 -1 -8 3 -5 6 6 6 11 1 17 -2 13 -5z m336 -57
c-8 -13 -32 13 -26 29 4 12 8 12 18 -3 7 -10 11 -21 8 -26z m-898 23 c-3 -5
-12 -7 -20 -3 -21 7 -19 13 6 13 11 0 18 -4 14 -10z m555 0 c0 -5 -7 -7 -15
-4 -8 4 -15 8 -15 10 0 2 7 4 15 4 8 0 15 -4 15 -10z m-8 -23 c15 -12 15 -14
-5 -27 -20 -12 -21 -12 -8 3 12 15 11 17 -3 17 -9 0 -16 5 -16 10 0 13 11 12
32 -3z m68 0 c25 2 25 2 -2 -9 -35 -15 -35 -26 -3 -34 29 -7 51 -39 35 -49 -5
-3 -10 0 -10 9 0 8 -16 20 -35 26 -35 12 -44 23 -25 35 8 5 7 12 -2 23 -11 13
-11 14 2 7 8 -5 26 -9 40 -8z m-963 -3 c-3 -3 -12 -4 -19 -1 -8 3 -5 6 6 6 11
1 17 -2 13 -5z m1323 -9 c7 -9 8 -15 2 -15 -5 0 -12 7 -16 15 -3 8 -4 15 -2
15 2 0 9 -7 16 -15z m-1300 -5 c0 -5 -5 -10 -11 -10 -5 0 -7 5 -4 10 3 6 8 10
11 10 2 0 4 -4 4 -10z m60 1 c0 -5 -9 -11 -19 -14 -14 -3 -18 -1 -14 9 6 15
33 19 33 5z m490 -11 c12 -8 11 -10 -5 -10 -12 0 -26 -5 -33 -12 -9 -9 -12 -9
-12 0 0 7 5 12 11 12 5 0 7 5 4 10 -8 13 15 13 35 0z m155 -3 c10 -8 14 -17 9
-20 -5 -3 -21 3 -34 14 -29 22 -6 28 25 6z m299 -6 c19 -21 3 -42 -17 -22 -6
6 -7 11 -3 11 5 0 3 7 -4 15 -18 22 4 18 24 -4z m-644 0 c0 -17 -18 -21 -24
-6 -3 9 0 15 9 15 8 0 15 -4 15 -9z m489 -28 c2 -2 -3 -3 -12 -3 -9 0 -22 10
-28 23 l-12 22 24 -20 c13 -11 26 -21 28 -22z m422 -2 c19 -21 43 -49 54 -62
11 -13 35 -35 52 -49 25 -20 31 -32 28 -55 -1 -17 2 -36 7 -42 7 -9 7 -13 0
-13 -14 0 -28 21 -35 51 -4 15 -15 37 -26 50 -16 20 -21 21 -35 10 -14 -12
-16 -11 -16 9 0 24 -31 81 -63 118 -11 12 -16 22 -10 22 6 0 26 -18 44 -39z
m-1331 19 c11 -8 7 -9 -15 -4 -37 8 -45 14 -19 14 10 0 26 -5 34 -10z m107
-12 c-3 -8 -6 -5 -6 6 -1 11 2 17 5 13 3 -3 4 -12 1 -19z m50 6 c-3 -3 -12 -4
-19 -1 -8 3 -5 6 6 6 11 1 17 -2 13 -5z m210 -1 c-4 -4 7 -13 25 -21 32 -13
32 -14 14 -28 -19 -13 -19 -14 7 -14 15 0 27 5 27 11 0 5 5 7 10 4 21 -13 10
-40 -17 -42 -40 -2 -163 -20 -197 -29 -19 -4 -27 -3 -23 3 4 6 24 13 46 17 21
3 41 13 45 21 4 11 13 14 31 9 15 -4 25 -2 25 5 0 6 -19 12 -42 12 -39 1 -40
2 -13 8 17 3 30 13 30 21 0 8 5 18 10 22 13 10 31 10 22 1z m306 0 c-7 -2 -19
-2 -25 0 -7 3 -2 5 12 5 14 0 19 -2 13 -5z m727 -10 c33 -23 72 -64 66 -70 -4
-5 -106 75 -106 84 0 8 17 2 40 -14z m-783 1 c-3 -3 -12 -4 -19 -1 -8 3 -5 6
6 6 11 1 17 -2 13 -5z m-451 -14 c8 0 14 -4 14 -9 0 -11 -49 -1 -57 12 -4 7 0
8 11 4 10 -4 24 -7 32 -7z m59 0 c3 -5 1 -10 -4 -10 -6 0 -11 5 -11 10 0 6 2
10 4 10 3 0 8 -4 11 -10z m855 -10 c-14 -11 -29 -20 -35 -20 -5 0 -3 5 5 10 8
5 11 10 5 11 -5 0 -1 4 10 9 34 15 41 10 15 -10z m505 10 c3 -5 1 -10 -4 -10
-6 0 -11 5 -11 10 0 6 2 10 4 10 3 0 8 -4 11 -10z m-945 -10 c0 -5 -2 -10 -4
-10 -3 0 -8 5 -11 10 -3 6 -1 10 4 10 6 0 11 -4 11 -10z m-45 -21 c5 -5 -8 -9
-37 -9 -26 0 -50 5 -54 11 -4 8 -9 7 -15 -2 -4 -7 -11 -10 -14 -7 -4 4 -4 12
0 18 9 14 104 5 120 -11z m353 8 c6 0 12 -5 12 -10 0 -5 -10 -7 -22 -3 -13 3
-29 6 -35 6 -7 0 -13 5 -13 11 0 6 9 8 23 3 12 -4 28 -7 35 -7z m182 9 c0 -3
-4 -8 -10 -11 -5 -3 -10 -1 -10 4 0 6 5 11 10 11 6 0 10 -2 10 -4z m-372 -23
l27 -7 -25 -6 c-27 -7 -60 4 -60 21 0 6 7 8 16 5 9 -3 28 -9 42 -13z m-121 1
c-3 -3 -12 -4 -19 -1 -8 3 -5 6 6 6 11 1 17 -2 13 -5z m48 -4 c3 -5 -1 -10 -9
-10 -9 0 -16 5 -16 10 0 6 4 10 9 10 6 0 13 -4 16 -10z m410 0 c-3 -5 -12 -10
-18 -10 -7 0 -6 4 3 10 19 12 23 12 15 0z m-888 -16 c-3 -3 -12 -4 -19 -1 -8
3 -5 6 6 6 11 1 17 -2 13 -5z m348 -19 c0 -22 -4 -25 -22 -20 -12 3 -28 -1
-35 -7 -7 -7 -18 -14 -23 -14 -6 -1 -30 -4 -55 -8 -31 -4 -40 -3 -30 4 8 5 23
10 32 10 9 0 18 5 20 10 2 6 12 12 23 14 15 3 90 33 90 36 0 0 0 -11 0 -25z
m505 15 c0 -5 5 -10 11 -10 12 0 43 -29 38 -35 -2 -2 -20 10 -39 26 -19 15
-29 29 -22 29 6 0 12 -4 12 -10z m-193 -30 c2 0 3 -7 3 -15 0 -8 -7 -15 -16
-15 -8 0 -12 5 -9 10 3 6 0 10 -8 10 -8 0 -20 7 -27 15 -10 12 -7 13 22 5 18
-6 34 -10 35 -10z m313 -1 c0 -6 -4 -7 -10 -4 -5 3 -10 11 -10 16 0 6 5 7 10
4 6 -3 10 -11 10 -16z m-445 1 c-3 -5 -16 -10 -28 -9 -21 0 -21 1 -2 9 28 12
37 12 30 0z m45 0 c0 -5 -7 -7 -15 -4 -8 4 -15 8 -15 10 0 2 7 4 15 4 8 0 15
-4 15 -10z m425 -10 c3 -5 1 -10 -4 -10 -6 0 -11 5 -11 10 0 6 2 10 4 10 3 0
8 -4 11 -10z m-1015 -10 c-8 -5 -22 -10 -30 -10 -13 0 -13 1 0 10 8 5 22 10
30 10 13 0 13 -1 0 -10z m490 0 c0 -5 16 -12 35 -16 19 -3 38 -10 41 -16 7
-10 -36 -1 -83 19 -38 15 -42 23 -13 23 11 0 20 -4 20 -10z m728 -25 c-3 -3
-9 2 -12 12 -6 14 -5 15 5 6 7 -7 10 -15 7 -18z m-922 -15 c122 -12 138 -16
129 -29 -3 -6 -22 -5 -49 3 -50 15 -321 14 -399 -2 -26 -5 -50 -6 -52 -2 -7
11 110 30 236 38 14 1 75 -3 135 -8z m744 0 c0 -5 -2 -10 -4 -10 -3 0 -8 5
-11 10 -3 6 -1 10 4 10 6 0 11 -4 11 -10z m370 0 c0 -5 -5 -10 -12 -10 -8 0
-6 -5 3 -12 8 -7 21 -21 28 -31 12 -15 12 -17 -5 -11 -26 9 -53 45 -47 61 6
15 33 18 33 3z m90 -32 c0 -12 -28 3 -34 18 -4 11 -2 12 14 1 11 -6 20 -15 20
-19z m-775 12 c3 -5 -1 -10 -9 -10 -9 0 -16 5 -16 10 0 6 4 10 9 10 6 0 13 -4
16 -10z m285 -75 c0 -6 -3 -7 -8 0 -4 6 -20 18 -37 27 -16 9 -37 27 -45 39
-11 17 -1 13 38 -16 28 -22 52 -44 52 -50z m350 55 c12 -11 31 -22 42 -26 11
-3 17 -8 14 -11 -3 -4 -2 -11 3 -17 4 -6 11 -19 15 -30 6 -17 -31 10 -96 71
-36 33 -15 46 22 13z m134 -24 c41 -35 51 -50 51 -72 -2 -33 -14 -35 -34 -4
-12 18 -12 20 3 14 32 -12 15 13 -34 52 -45 36 -60 54 -44 54 4 0 30 -20 58
-44z m-1241 27 c-7 -2 -19 -2 -25 0 -7 3 -2 5 12 5 14 0 19 -2 13 -5z m322 -3
c3 -5 1 -10 -4 -10 -6 0 -11 5 -11 10 0 6 2 10 4 10 3 0 8 -4 11 -10z m595
-11 c0 -6 -4 -7 -10 -4 -5 3 -10 11 -10 16 0 6 5 7 10 4 6 -3 10 -11 10 -16z
m-710 -14 c101 -16 188 -48 213 -77 21 -25 17 -32 -13 -23 -14 4 -19 12 -15
22 4 13 3 14 -9 3 -12 -9 -22 -9 -43 -1 l-28 11 28 -5 c17 -4 26 -2 23 4 -4 5
-21 12 -39 16 -17 4 -51 13 -75 21 -23 8 -60 14 -82 14 -21 0 -42 5 -46 11 -4
6 -19 9 -36 5 -16 -3 -27 -2 -23 3 3 5 -3 12 -12 15 -23 7 48 -2 157 -19z m13
18 c-7 -2 -19 -2 -25 0 -7 3 -2 5 12 5 14 0 19 -2 13 -5z m312 -13 c-3 -6 4
-10 16 -10 12 0 19 -3 16 -7 -9 -9 -106 -13 -111 -5 -2 4 10 8 27 8 17 1 33 6
35 13 2 6 8 11 13 11 6 0 7 -4 4 -10z m470 -10 c3 -5 1 -10 -4 -10 -6 0 -11 5
-11 10 0 6 2 10 4 10 3 0 8 -4 11 -10z m-569 -24 c10 -8 16 -17 12 -21 -4 -4
-19 2 -34 14 -30 24 -10 30 22 7z m574 -47 c12 -23 19 -44 16 -47 -3 -3 -7 -3
-8 -1 -28 45 -46 89 -39 89 6 0 20 -18 31 -41z m-777 10 c40 -6 77 -16 82 -21
7 -7 1 -9 -20 -4 -33 6 -202 24 -280 29 -27 2 -6 4 48 5 54 1 131 -3 170 -9z
m-1713 -44 c0 -8 -4 -15 -9 -15 -5 0 -11 7 -15 15 -3 9 0 15 9 15 8 0 15 -7
15 -15z m2810 -15 c8 -5 11 -12 8 -16 -4 -3 -14 1 -23 10 -18 17 -9 21 15 6z
m-1607 -17 c-7 -2 -21 -2 -30 0 -10 3 -4 5 12 5 17 0 24 -2 18 -5z m562 -33
c17 -4 -17 -5 -74 -3 -58 2 -107 5 -109 8 -8 8 149 4 183 -5z m-126 -22 c13
-5 21 -11 18 -14 -6 -6 -88 16 -102 28 -10 9 46 0 84 -14z m201 2 c0 -5 -4
-10 -9 -10 -6 0 -13 5 -16 10 -3 6 1 10 9 10 9 0 16 -4 16 -10z m-202 -89 c3
-10 0 -12 -14 -6 -11 4 -24 8 -31 8 -7 0 -10 3 -8 7 8 13 48 5 53 -9z m-433
-1 c3 -5 2 -10 -4 -10 -5 0 -13 5 -16 10 -3 6 -2 10 4 10 5 0 13 -4 16 -10z
m95 1 c0 -5 -11 -8 -25 -6 -38 4 -43 15 -7 15 18 0 32 -4 32 -9z m415 -1 c3
-5 2 -10 -4 -10 -5 0 -13 5 -16 10 -3 6 -2 10 4 10 5 0 13 -4 16 -10z m920
-80 c13 0 27 -5 30 -10 4 -7 -3 -8 -22 -4 -37 9 -43 13 -42 27 0 9 2 9 6 0 2
-7 15 -13 28 -13z m-45 -20 c8 -5 11 -10 5 -10 -5 0 -17 5 -25 10 -8 5 -10 10
-5 10 6 0 17 -5 25 -10z m-30 -20 c0 -5 -4 -10 -10 -10 -5 0 -10 5 -10 10 0 6
5 10 10 10 6 0 10 -4 10 -10z m110 -20 c0 -5 -2 -10 -4 -10 -3 0 -8 5 -11 10
-3 6 -1 10 4 10 6 0 11 -4 11 -10z m-20 -40 c12 -8 11 -10 -7 -10 -13 0 -23 5
-23 10 0 13 11 13 30 0z m85 0 c3 -6 -1 -7 -9 -4 -18 7 -21 14 -7 14 6 0 13
-4 16 -10z m160 -40 c-3 -5 -10 -10 -16 -10 -5 0 -9 5 -9 10 0 6 7 10 16 10 8
0 12 -4 9 -10z m15 -50 c0 -5 -2 -10 -4 -10 -3 0 -8 5 -11 10 -3 6 -1 10 4 10
6 0 11 -4 11 -10z m34 -85 c8 -23 -12 -28 -23 -6 -6 11 -11 22 -11 25 0 11 29
-6 34 -19z m20 -294 c-2 -3 -12 3 -22 13 -16 17 -16 18 5 5 12 -7 20 -15 17
-18z m-3744 -16 c0 -8 -2 -15 -4 -15 -2 0 -6 7 -10 15 -3 8 -1 15 4 15 6 0 10
-7 10 -15z m39 -46 c-19 -11 -20 -6 -6 24 11 25 12 25 15 6 2 -12 -2 -25 -9
-30z m28 -87 c-3 -14 -6 -12 -14 8 -6 14 -8 29 -5 34 7 13 24 -22 19 -42z m93
-352 c0 -5 -5 -10 -11 -10 -5 0 -7 5 -4 10 3 6 8 10 11 10 2 0 4 -4 4 -10z
m15 -60 c3 -5 -1 -10 -10 -10 -9 0 -13 5 -10 10 3 6 8 10 10 10 2 0 7 -4 10
-10z m3575 -311 c0 -5 -4 -9 -10 -9 -5 0 -10 7 -10 16 0 8 5 12 10 9 6 -3 10
-10 10 -16z m-23 -361 c-3 -8 -6 -5 -6 6 -1 11 2 17 5 13 3 -3 4 -12 1 -19z
m118 -318 c3 -5 1 -10 -4 -10 -6 0 -11 5 -11 10 0 6 2 10 4 10 3 0 8 -4 11
-10z m-3745 -40 c0 -5 -4 -10 -10 -10 -5 0 -10 5 -10 10 0 6 5 10 10 10 6 0
10 -4 10 -10z m7 -116 c-3 -3 -12 -4 -19 -1 -8 3 -5 6 6 6 11 1 17 -2 13 -5z
m-7 -89 c0 -8 -4 -15 -10 -15 -5 0 -10 7 -10 15 0 8 5 15 10 15 6 0 10 -7 10
-15z m3664 -110 c3 -8 1 -15 -4 -15 -6 0 -10 7 -10 15 0 8 2 15 4 15 2 0 6 -7
10 -15z m280 -101 c7 -17 0 -34 -13 -34 -5 0 -8 11 -8 25 0 28 12 33 21 9z
m-3992 -24 c-5 -33 -32 -64 -32 -37 0 9 5 19 10 22 6 4 7 11 4 17 -5 8 9 25
22 28 0 0 -1 -13 -4 -30z m3938 10 c0 -5 -4 -10 -10 -10 -5 0 -10 5 -10 10 0
6 5 10 10 10 6 0 10 -4 10 -10z m-90 -20 c0 -5 -2 -10 -4 -10 -3 0 -8 5 -11
10 -3 6 -1 10 4 10 6 0 11 -4 11 -10z m-3942 -120 c-14 -22 -24 -19 -15 5 4 8
11 15 17 15 6 0 6 -7 -2 -20z m4066 -15 c-4 -8 -11 -15 -16 -15 -6 0 -8 -11
-6 -25 4 -20 3 -23 -8 -14 -18 15 -18 20 4 47 20 25 34 29 26 7z m-434 -38 c0
-10 -4 -15 -10 -12 -5 3 -10 18 -10 33 0 21 2 24 10 12 5 -8 10 -23 10 -33z
m-3583 -27 c0 -27 -3 -47 -8 -44 -5 3 -9 -2 -9 -10 0 -8 -11 -28 -25 -43 -24
-27 -34 -23 -16 6 6 8 6 22 1 31 -10 18 14 58 25 41 12 -20 22 -11 17 14 -4
22 2 55 10 55 2 0 4 -22 5 -50z m-87 30 c0 -5 -5 -10 -11 -10 -5 0 -7 5 -4 10
3 6 8 10 11 10 2 0 4 -4 4 -10z m391 -47 c10 3 19 1 19 -3 0 -5 3 -15 6 -23 3
-10 -3 -20 -16 -27 -18 -10 -21 -10 -14 2 4 7 -2 4 -14 -6 l-22 -19 11 32 c8
23 8 35 0 45 -6 7 -7 16 -3 20 4 4 9 0 10 -9 3 -11 10 -15 23 -12z m3299 -3
c0 -5 -2 -10 -4 -10 -3 0 -8 5 -11 10 -3 6 -1 10 4 10 6 0 11 -4 11 -10z
m-3230 -41 c0 -5 -4 -9 -10 -9 -5 0 -10 7 -10 16 0 8 5 12 10 9 6 -3 10 -10
10 -16z m-144 -26 c-11 -11 -17 4 -9 23 7 18 8 18 11 1 2 -10 1 -21 -2 -24z
m166 -8 c-5 -29 -32 -34 -32 -7 0 22 8 32 25 32 8 0 10 -10 7 -25z m3655 -16
l14 -34 -26 28 c-27 30 -33 51 -13 45 7 -3 18 -20 25 -39z m-4067 2 c-12 -24
-58 -57 -66 -48 -3 3 3 8 13 11 10 3 27 20 37 37 20 33 34 33 16 0z m364 5
c-6 -16 -24 -23 -24 -8 0 10 22 33 27 28 2 -2 1 -11 -3 -20z m3129 -11 c-3 -9
-8 -14 -10 -11 -3 3 -2 9 2 15 9 16 15 13 8 -4z m-3113 -22 c-1 -13 -51 -66
-57 -60 -7 7 35 67 48 67 5 0 9 -3 9 -7z m-365 -13 c-3 -5 -12 -10 -18 -10 -7
0 -6 4 3 10 19 12 23 12 15 0z m45 -4 c0 -3 -4 -8 -10 -11 -5 -3 -10 -1 -10 4
0 6 5 11 10 11 6 0 10 -2 10 -4z m4377 -22 c-3 -3 -12 -4 -19 -1 -8 3 -5 6 6
6 11 1 17 -2 13 -5z m-5604 -21 c-7 -2 -19 -2 -25 0 -7 3 -2 5 12 5 14 0 19
-2 13 -5z m74 1 c-3 -3 -12 -4 -19 -1 -8 3 -5 6 6 6 11 1 17 -2 13 -5z m351
-1 c-38 -2 -98 -2 -135 0 -38 2 -7 3 67 3 74 0 105 -1 68 -3z m189 1 c-3 -3
-12 -4 -19 -1 -8 3 -5 6 6 6 11 1 17 -2 13 -5z m106 -1 c-7 -2 -21 -2 -30 0
-10 3 -4 5 12 5 17 0 24 -2 18 -5z m5264 1 c-3 -3 -12 -4 -19 -1 -8 3 -5 6 6
6 11 1 17 -2 13 -5z m-6264 -11 c-7 -2 -21 -2 -30 0 -10 3 -4 5 12 5 17 0 24
-2 18 -5z m60 0 c-7 -2 -19 -2 -25 0 -7 3 -2 5 12 5 14 0 19 -2 13 -5z m1892
-2 c3 -5 1 -12 -5 -16 -5 -3 -10 1 -10 9 0 18 6 21 15 7z m4180 -1 c-3 -5 -14
-10 -23 -9 -14 0 -13 2 3 9 27 11 27 11 20 0z m-4470 -20 c-3 -5 -11 -10 -16
-10 -6 0 -7 5 -4 10 3 6 11 10 16 10 6 0 7 -4 4 -10z m-19 -76 c-4 -14 -11
-22 -17 -18 -8 4 -7 10 0 17 6 6 11 20 12 32 0 11 3 14 6 7 3 -7 2 -24 -1 -38z
m1909 27 c2 -4 -12 -7 -30 -7 -33 1 -42 6 -30 18 7 7 54 -2 60 -11z m-1970 -1
c-3 -5 -10 -10 -16 -10 -5 0 -9 5 -9 10 0 6 7 10 16 10 8 0 12 -4 9 -10z
m2083 -55 c0 -36 -4 -65 -9 -65 -10 0 -12 73 -3 108 10 36 13 26 12 -43z
m1292 55 c0 -5 -4 -10 -10 -10 -5 0 -10 5 -10 10 0 6 5 10 10 10 6 0 10 -4 10
-10z m-2905 -19 c5 -10 -21 -41 -35 -41 -16 0 -18 39 -1 43 27 8 30 7 36 -2z
m1015 -1 c0 -5 -5 -10 -10 -10 -6 0 -17 -14 -24 -31 -10 -23 -16 -28 -21 -18
-5 7 -4 14 3 17 7 2 12 8 12 13 0 12 22 38 33 39 4 0 7 -4 7 -10z m141 -13
c-10 -9 -11 -8 -5 6 3 10 9 15 12 12 3 -3 0 -11 -7 -18z m-1650 -20 c-8 -8
-11 -7 -11 4 0 20 13 34 18 19 3 -7 -1 -17 -7 -23z m1413 21 c-3 -4 -9 -8 -15
-8 -5 0 -9 4 -9 8 0 5 7 9 15 9 8 0 12 -4 9 -9z m536 -80 c0 -20 -6 -39 -12
-41 -8 -3 -5 -6 6 -6 14 -1 17 -6 12 -26 -4 -16 -2 -25 5 -25 7 0 10 12 7 30
-4 24 -2 27 9 19 7 -7 13 -18 13 -25 0 -8 5 -14 10 -14 13 0 12 10 -5 40 -8
14 -14 34 -15 44 0 20 0 20 16 0 15 -18 15 -18 11 9 -2 15 0 27 6 27 5 0 7
-15 4 -35 -4 -25 0 -41 14 -59 21 -26 25 -61 9 -71 -5 -3 -10 1 -10 10 0 11
-6 15 -18 11 -9 -3 -40 -8 -67 -12 -28 -3 -63 -12 -79 -20 -38 -18 -44 -18
-48 6 -3 18 -5 19 -30 6 -15 -8 -28 -13 -30 -11 -2 2 -19 5 -38 6 -29 3 -34 1
-32 -13 2 -13 -2 -16 -13 -12 -9 4 -14 12 -11 19 2 7 -2 21 -9 32 -11 13 -14
14 -15 4 0 -8 -3 -12 -6 -9 -3 3 -1 14 5 25 5 10 13 27 17 38 6 17 8 14 13
-15 7 -38 25 -27 20 13 -2 12 0 28 5 35 5 8 4 18 -3 25 -8 8 -11 7 -11 -4 0
-7 -12 -25 -25 -38 -14 -13 -25 -29 -25 -37 0 -8 -4 -14 -10 -14 -14 0 -13 7
8 43 30 55 77 80 77 42 1 -11 5 -27 10 -35 7 -12 10 -10 15 10 3 14 12 25 20
26 8 1 23 2 32 2 9 1 20 11 23 22 8 25 25 26 26 3 1 -12 4 -9 9 7 6 22 8 23
15 8 10 -24 25 -13 18 12 -6 22 9 27 24 8 6 -7 13 -25 17 -40 3 -16 11 -28 17
-28 7 0 8 7 4 18 -4 9 -9 33 -11 52 l-4 35 14 -30 c9 -16 15 -46 16 -67z m84
83 c4 -5 -3 -7 -14 -4 -23 6 -26 13 -6 13 8 0 17 -4 20 -9z m-54 -21 c0 -5 -2
-10 -4 -10 -3 0 -8 5 -11 10 -3 6 -1 10 4 10 6 0 11 -4 11 -10z m100 -6 c0
-14 -3 -14 -15 -4 -8 7 -15 14 -15 16 0 2 7 4 15 4 8 0 15 -7 15 -16z m-463
-12 c-10 -10 -17 -23 -17 -29 0 -6 -7 -13 -15 -17 -8 -3 -12 -12 -9 -20 3 -8
1 -23 -6 -33 -9 -16 -10 -15 -4 6 4 16 3 21 -6 16 -7 -4 -9 -18 -5 -36 4 -18
3 -29 -4 -29 -6 0 -11 5 -11 10 0 6 -4 10 -10 10 -5 0 -10 -7 -10 -15 0 -9 -6
-18 -14 -21 -8 -3 -12 -13 -8 -26 3 -14 1 -19 -6 -14 -18 11 -15 56 4 56 8 0
13 4 10 8 -3 5 1 20 8 34 8 15 10 31 5 41 -6 10 -4 17 6 21 9 3 12 12 8 23 -5
14 -3 15 6 7 10 -9 10 -17 2 -33 -7 -12 -8 -21 -4 -21 5 0 14 14 20 31 7 17
17 28 23 24 5 -3 17 1 26 9 22 22 31 20 11 -2z m513 6 c1 -16 60 -87 60 -72 0
5 -5 15 -11 21 -8 8 -8 13 0 17 6 4 11 1 12 -6 1 -7 2 -28 4 -45 1 -18 -1 -30
-6 -27 -5 3 -9 -2 -9 -11 0 -9 -5 -13 -11 -9 -6 3 -9 14 -6 24 3 10 -8 38 -24
62 -16 23 -29 46 -29 51 0 13 20 8 20 -5z m-1630 -8 c0 -5 -5 -10 -11 -10 -5
0 -7 5 -4 10 3 6 8 10 11 10 2 0 4 -4 4 -10z m-120 -15 c-7 -8 -18 -15 -24
-15 -6 0 -2 7 8 15 25 19 32 19 16 0z m2950 5 c0 -5 -2 -10 -4 -10 -3 0 -8 5
-11 10 -3 6 -1 10 4 10 6 0 11 -4 11 -10z m-43 -22 c-3 -8 -6 -5 -6 6 -1 11 2
17 5 13 3 -3 4 -12 1 -19z m-1212 -46 c-9 -9 -36 28 -29 40 4 5 13 0 21 -12 8
-12 12 -24 8 -28z m-1725 34 c0 -3 -4 -8 -10 -11 -5 -3 -10 -1 -10 4 0 6 5 11
10 11 6 0 10 -2 10 -4z m160 -10 c0 -16 -30 -50 -37 -42 -5 4 26 56 33 56 2 0
4 -6 4 -14z m1640 -29 c0 -20 -25 1 -28 24 -2 23 -2 23 13 5 8 -11 15 -24 15
-29z m-1913 11 c-3 -8 -6 -5 -6 6 -1 11 2 17 5 13 3 -3 4 -12 1 -19z m1383 2
c-8 -6 -11 -10 -6 -10 5 0 3 -7 -4 -15 -6 -8 -9 -22 -6 -32 3 -11 -8 -32 -30
-57 -26 -31 -34 -35 -34 -20 1 23 30 66 30 43 0 -12 2 -12 10 1 5 9 5 19 0 24
-5 5 -4 20 3 35 12 27 39 53 47 45 2 -3 -2 -9 -10 -14z m503 -73 c-9 -14 -33
51 -26 69 4 11 10 5 19 -22 7 -21 10 -42 7 -47z m1167 74 c0 -6 -4 -13 -10
-16 -5 -3 -10 1 -10 9 0 9 5 16 10 16 6 0 10 -4 10 -9z m-2972 -52 c-6 -16
-12 -28 -15 -26 -7 7 8 57 18 57 4 0 3 -14 -3 -31z m162 1 c0 -5 -5 -10 -11
-10 -5 0 -7 5 -4 10 3 6 8 10 11 10 2 0 4 -4 4 -10z m-70 -30 c0 -16 -4 -30
-10 -30 -11 0 -14 43 -3 53 11 12 13 8 13 -23z m1667 -17 c-3 -10 -5 -2 -5 17
0 19 2 27 5 18 2 -10 2 -26 0 -35z m1163 7 c0 -7 -13 -7 -38 -1 -2 1 -1 5 3
11 6 10 35 2 35 -10z m-684 -4 c21 -22 17 -27 -11 -14 -14 6 -25 15 -25 20 0
13 20 9 36 -6z m911 -18 c-3 -8 -6 -5 -6 6 -1 11 2 17 5 13 3 -3 4 -12 1 -19z
m-157 -9 c0 -5 -4 -9 -10 -9 -5 0 -10 7 -10 16 0 8 5 12 10 9 6 -3 10 -10 10
-16z m-1370 -4 c-12 -15 -30 -12 -30 6 0 5 10 9 21 9 18 0 19 -2 9 -15z m260
11 c0 -3 -4 -8 -10 -11 -5 -3 -10 -1 -10 4 0 6 5 11 10 11 6 0 10 -2 10 -4z
m300 0 c0 -3 -4 -8 -10 -11 -5 -3 -10 -1 -10 4 0 6 5 11 10 11 6 0 10 -2 10
-4z m-217 -43 c7 -39 1 -40 -11 -4 -6 17 -7 31 -3 31 5 0 11 -12 14 -27z
m1197 6 c0 -11 -4 -17 -10 -14 -5 3 -10 13 -10 21 0 8 5 14 10 14 6 0 10 -9
10 -21z m37 -11 c-3 -7 -5 -2 -5 12 0 14 2 19 5 13 2 -7 2 -19 0 -25z m-3120
-20 c-3 -7 -5 -2 -5 12 0 14 2 19 5 13 2 -7 2 -19 0 -25z m1788 22 c-3 -5 -10
-10 -16 -10 -5 0 -9 5 -9 10 0 6 7 10 16 10 8 0 12 -4 9 -10z m346 -8 c-7 -2
-18 1 -23 6 -8 8 -4 9 13 5 13 -4 18 -8 10 -11z m1857 -9 c-10 -2 -28 -2 -40
0 -13 2 -5 4 17 4 22 1 32 -1 23 -4z m-1314 -28 c3 -8 2 -15 -3 -15 -5 0 -14
7 -21 15 -10 12 -10 15 3 15 8 0 17 -7 21 -15z m-1000 -51 c20 -19 21 -45 2
-38 -8 3 -16 16 -19 30 -5 28 -4 29 17 8z m94 -4 c-14 -22 -24 -19 -15 5 4 8
11 15 17 15 6 0 6 -7 -2 -20z m72 0 c0 -5 -2 -10 -4 -10 -3 0 -8 5 -11 10 -3
6 -1 10 4 10 6 0 11 -4 11 -10z m165 0 c3 -5 -3 -10 -14 -10 -12 0 -21 5 -21
10 0 6 6 10 14 10 8 0 18 -4 21 -10z m-1258 -22 c-3 -8 -6 -5 -6 6 -1 11 2 17
5 13 3 -3 4 -12 1 -19z m164 -11 c-16 -16 -26 0 -10 19 9 11 15 12 17 4 2 -6
-1 -17 -7 -23z m1349 13 c0 -5 -2 -10 -4 -10 -3 0 -8 5 -11 10 -3 6 -1 10 4
10 6 0 11 -4 11 -10z m-1612 -40 c-1 -16 -6 -30 -10 -30 -9 0 -10 22 -2 44 10
25 15 19 12 -14z m222 14 c0 -8 -4 -12 -10 -9 -5 3 -10 10 -10 16 0 5 5 9 10
9 6 0 10 -7 10 -16z m1763 -5 c19 -21 17 -36 -2 -24 -15 9 -34 45 -24 45 5 0
17 -9 26 -21z m-1813 1 c0 -5 -5 -10 -11 -10 -5 0 -7 5 -4 10 3 6 8 10 11 10
2 0 4 -4 4 -10z m-133 -42 c-3 -7 -5 -2 -5 12 0 14 2 19 5 13 2 -7 2 -19 0
-25z m1899 1 c19 -22 19 -22 -3 -10 -13 6 -23 16 -23 21 0 15 5 12 26 -11z
m39 -8 c-6 -5 -25 10 -25 20 0 5 6 4 14 -3 8 -7 12 -15 11 -17z m-2321 -2
c-31 -12 -39 -10 -19 5 11 8 24 12 29 8 5 -3 1 -9 -10 -13z m502 -5 c-5 -14
-9 -15 -19 -5 -9 9 -9 14 3 21 18 11 24 6 16 -16z m2694 16 c0 -5 -4 -10 -10
-10 -5 0 -10 5 -10 10 0 6 5 10 10 10 6 0 10 -4 10 -10z m-2763 -64 c-2 -37
-32 -73 -41 -50 -3 8 -11 14 -18 13 -7 -1 -24 3 -38 9 -31 13 -16 15 27 3 26
-8 31 -7 26 5 -3 8 0 28 7 44 10 24 15 28 26 19 8 -6 13 -25 11 -43z m-324 37
c-7 -2 -19 -2 -25 0 -7 3 -2 5 12 5 14 0 19 -2 13 -5z m2320 -30 c-7 -2 -21
-2 -30 0 -10 3 -4 5 12 5 17 0 24 -2 18 -5z m-180 -40 c-8 -21 -22 -5 -16 18
4 15 8 17 13 8 5 -7 6 -18 3 -26z m-2405 -8 c-1 -14 -6 -25 -10 -25 -4 0 -6
10 -4 23 6 28 5 27 11 27 3 0 4 -11 3 -25z m2369 -37 c-3 -23 -1 -51 5 -62 11
-21 23 -194 12 -184 -13 14 -40 264 -30 275 17 19 19 15 13 -29z m-79 -14 c-3
-14 -5 -12 -10 9 -3 19 -2 25 4 19 6 -6 8 -18 6 -28z m-1741 10 c4 -10 0 -20
-10 -26 -10 -5 -17 -16 -17 -24 0 -8 -5 -12 -11 -8 -8 4 -8 9 0 17 6 6 11 21
11 34 0 26 18 31 27 7z m-552 -4 c3 -5 1 -10 -4 -10 -6 0 -11 5 -11 10 0 6 2
10 4 10 3 0 8 -4 11 -10z m335 2 c0 -9 -30 -36 -45 -41 -5 -1 -38 -16 -73 -32
-70 -32 -72 -33 -72 -20 0 5 8 11 18 14 9 3 28 12 42 21 14 8 42 22 62 30 20
9 40 21 43 26 7 12 25 13 25 2z m2070 1 c0 -5 -5 -15 -10 -23 -8 -12 -10 -11
-10 8 0 12 5 22 10 22 6 0 10 -3 10 -7z m-248 -90 c26 -43 17 -42 -16 2 -16
20 -24 40 -20 47 6 9 9 8 12 -2 3 -8 13 -30 24 -47z m295 35 c-3 -8 -6 -5 -6
6 -1 11 2 17 5 13 3 -3 4 -12 1 -19z m-2117 -10 c0 -5 -6 -8 -12 -5 -7 2 -24
-3 -38 -13 -47 -31 -77 -35 -47 -6 36 36 97 51 97 24z m210 -12 c-6 -8 -19
-12 -28 -9 -15 6 -15 5 -3 -10 12 -15 11 -17 -9 -17 -27 0 -22 21 11 37 32 17
44 16 29 -1z m-83 -18 c-3 -8 -6 -5 -6 6 -1 11 2 17 5 13 3 -3 4 -12 1 -19z
m-257 -17 c0 -11 -9 -22 -20 -25 -11 -3 -29 -9 -40 -12 -16 -4 -18 -2 -13 12
5 14 2 16 -20 10 -15 -3 -27 -2 -27 3 0 13 30 22 51 16 10 -4 27 -2 36 4 26
15 33 13 33 -8z m3470 9 c0 -5 -4 -10 -10 -10 -5 0 -10 5 -10 10 0 6 5 10 10
10 6 0 10 -4 10 -10z m56 -11 c1 -25 16 -49 30 -49 16 0 18 -28 4 -50 -9 -13
-12 -12 -25 4 -8 11 -15 29 -15 40 0 17 -2 18 -10 6 -8 -13 -11 -12 -24 5 -21
28 -20 38 5 32 17 -5 20 -2 16 14 -3 13 -1 19 6 16 7 -2 12 -10 13 -18z
m-3656 2 c0 -5 -10 -11 -22 -14 -22 -6 -22 -6 -4 8 23 17 26 18 26 6z m2390
-36 c-6 -15 -13 -26 -16 -23 -2 3 0 18 6 33 6 15 13 26 16 23 2 -3 0 -18 -6
-33z m-1890 5 c-6 -11 -15 -20 -20 -20 -14 0 -12 6 6 24 21 22 27 20 14 -4z
m-495 -8 c-22 -2 -43 -9 -47 -15 -6 -9 -8 -9 -8 1 0 6 -12 12 -27 13 -21 0
-23 2 -11 7 9 4 43 5 75 2 51 -4 53 -5 18 -8z m409 3 c-4 -8 -13 -15 -21 -15
-13 0 -13 3 -3 15 7 8 16 15 21 15 5 0 6 -7 3 -15z m-234 -15 c-14 -10 -27
-16 -30 -13 -6 6 30 33 44 33 6 0 0 -9 -14 -20z m2167 -12 c-3 -7 -5 -2 -5 12
0 14 2 19 5 13 2 -7 2 -19 0 -25z m-237 2 c0 -5 -4 -10 -10 -10 -5 0 -10 5
-10 10 0 6 5 10 10 10 6 0 10 -4 10 -10z m1523 -12 c4 1 13 -9 19 -23 6 -14
15 -25 20 -25 4 0 8 -7 8 -15 0 -8 -4 -15 -10 -15 -5 0 -10 4 -10 10 0 16 -33
49 -42 43 -5 -3 -16 3 -23 13 -21 28 -18 36 8 22 12 -7 25 -11 30 -10z m-1603
-18 c9 -16 8 -20 -5 -20 -8 0 -15 9 -15 20 0 11 2 20 5 20 2 0 9 -9 15 -20z
m1405 -1 c11 -17 2 -18 -19 -3 -17 12 -17 14 -4 14 9 0 20 -5 23 -11z m-1365
-3 c0 -3 -4 -8 -10 -11 -5 -3 -10 -1 -10 4 0 6 5 11 10 11 6 0 10 -2 10 -4z
m1435 -16 c3 -5 1 -10 -4 -10 -6 0 -11 5 -11 10 0 6 2 10 4 10 3 0 8 -4 11
-10z m-1388 -22 c-3 -8 -6 -5 -6 6 -1 11 2 17 5 13 3 -3 4 -12 1 -19z m-1547
-4 c0 -8 -5 -12 -10 -9 -6 4 -8 11 -5 16 9 14 15 11 15 -7z m1475 6 c3 -5 1
-10 -4 -10 -6 0 -11 5 -11 10 0 6 2 10 4 10 3 0 8 -4 11 -10z m-1525 -10 c0
-5 -5 -10 -11 -10 -5 0 -7 5 -4 10 3 6 8 10 11 10 2 0 4 -4 4 -10z m1570 -10
c9 -16 8 -18 -5 -14 -8 4 -15 12 -15 20 0 20 7 17 20 -6z m1459 -7 c0 -25 -1
-25 -8 -8 -5 11 -7 23 -4 28 8 14 13 7 12 -20z m-41 -8 c-3 -3 -9 2 -12 12 -6
14 -5 15 5 6 7 -7 10 -15 7 -18z m112 -12 c0 -20 -3 -24 -11 -16 -7 7 -9 19
-6 27 10 24 17 19 17 -11z m-43 -15 c-3 -8 -6 -5 -6 6 -1 11 2 17 5 13 3 -3 4
-12 1 -19z m-1249 -19 c-3 -8 -7 -3 -11 10 -4 17 -3 21 5 13 5 -5 8 -16 6 -23z
m1352 16 c0 -8 -9 -15 -20 -15 -22 0 -27 15 -7 23 21 9 27 7 27 -8z m-3120
-35 c0 -5 -5 -10 -11 -10 -5 0 -7 5 -4 10 3 6 8 10 11 10 2 0 4 -4 4 -10z m64
4 c12 -5 13 -10 5 -26 -9 -17 -13 -18 -20 -7 -9 15 -12 39 -5 39 2 0 11 -3 20
-6z m-107 -10 c-3 -3 -12 -4 -19 -1 -8 3 -5 6 6 6 11 1 17 -2 13 -5z m1183
-104 c-1 -12 -4 -11 -15 4 -8 10 -12 23 -8 29 7 11 23 -12 23 -33z m101 22
c-6 -11 -6 -24 1 -36 9 -17 4 -35 -7 -24 -18 17 -13 78 6 78 6 0 6 -7 0 -18z
m149 -12 c0 -5 -6 -10 -14 -10 -8 0 -18 5 -21 10 -3 6 3 10 14 10 12 0 21 -4
21 -10z m-275 -70 c-7 -12 5 -61 14 -56 4 3 5 -12 2 -32 -5 -36 -5 -35 -20 28
-9 36 -19 70 -24 77 -4 6 -1 13 5 16 15 5 32 -19 23 -33z m40 -5 c1 -19 -2
-35 -6 -35 -8 0 -18 68 -10 75 9 9 15 -6 16 -40z m342 13 c-3 -7 -5 -2 -5 12
0 14 2 19 5 13 2 -7 2 -19 0 -25z m-180 -55 c-3 -10 -5 -2 -5 17 0 19 2 27 5
18 2 -10 2 -26 0 -35z m-1227 27 c0 -5 -5 -10 -11 -10 -5 0 -7 5 -4 10 3 6 8
10 11 10 2 0 4 -4 4 -10z m1407 -22 c-3 -8 -6 -5 -6 6 -1 11 2 17 5 13 3 -3 4
-12 1 -19z m-1281 -8 c0 -12 -4 -16 -9 -11 -5 5 -6 14 -3 20 10 15 12 14 12
-9z m454 -17 c0 -14 7 -35 17 -45 20 -22 10 -37 -11 -16 -19 19 -32 88 -17 88
6 0 11 -12 11 -27z m-835 7 c-3 -5 -16 -10 -28 -9 -20 1 -20 2 3 9 14 4 26 8
28 9 2 1 0 -3 -3 -9z m313 3 c-10 -2 -21 -16 -24 -29 -4 -14 -8 -23 -11 -21
-2 3 -1 16 3 31 4 18 12 26 28 25 16 -1 17 -2 4 -6z m912 -3 c0 -5 -2 -10 -4
-10 -3 0 -8 5 -11 10 -3 6 -1 10 4 10 6 0 11 -4 11 -10z m197 -22 c-3 -8 -6
-5 -6 6 -1 11 2 17 5 13 3 -3 4 -12 1 -19z m-387 -38 c0 -28 -5 -50 -10 -50
-7 0 -9 19 -6 48 6 56 5 52 11 52 3 0 5 -22 5 -50z m216 20 c8 0 11 -6 7 -16
-6 -15 -8 -15 -20 2 -7 10 -13 23 -12 28 0 6 3 5 6 -1 2 -7 11 -13 19 -13z
m-333 -27 c-1 -21 -7 -39 -13 -41 -5 -2 -8 -8 -4 -13 3 -5 2 -15 -3 -21 -4 -8
-10 0 -15 22 -5 26 -3 38 8 46 7 6 14 19 14 28 0 9 4 16 8 16 5 0 7 -17 5 -37z
m287 22 c0 -8 -2 -15 -4 -15 -2 0 -6 7 -10 15 -3 8 -1 15 4 15 6 0 10 -7 10
-15z m-540 -5 c0 -5 -5 -10 -11 -10 -5 0 -7 5 -4 10 3 6 8 10 11 10 2 0 4 -4
4 -10z m627 -42 c-3 -8 -6 -5 -6 6 -1 11 2 17 5 13 3 -3 4 -12 1 -19z m786 5
c-7 -2 -21 -2 -30 0 -10 3 -4 5 12 5 17 0 24 -2 18 -5z m-1380 -37 c5 -15 6
-39 2 -54 -7 -24 -8 -25 -15 -7 -6 16 -9 13 -25 -23 -10 -23 -23 -42 -27 -42
-5 0 5 25 22 56 31 59 37 84 20 84 -5 0 -10 5 -10 11 0 20 24 3 33 -25z m27
19 c0 -8 -4 -15 -10 -15 -5 0 -7 7 -4 15 4 8 8 15 10 15 2 0 4 -7 4 -15z m347
-62 c-2 -16 -4 -3 -4 27 0 30 2 43 4 28 2 -16 2 -40 0 -55z m-89 23 c2 -32 0
-37 -14 -32 -12 4 -15 2 -10 -9 3 -8 2 -15 -3 -15 -12 0 -21 64 -10 68 5 2 9
10 9 19 0 32 25 4 28 -31z m-157 -59 c-7 -7 -8 -2 -4 13 4 16 3 21 -5 16 -7
-4 -12 -13 -12 -20 0 -7 -10 -24 -21 -37 -25 -28 -24 -22 11 50 l25 51 8 -31
c5 -19 4 -36 -2 -42z m-2000 20 c-10 -9 -11 -8 -5 6 3 10 9 15 12 12 3 -3 0
-11 -7 -18z m2196 -9 c-3 -7 -5 -2 -5 12 0 14 2 19 5 13 2 -7 2 -19 0 -25z
m130 -5 c-3 -10 -5 -4 -5 12 0 17 2 24 5 18 2 -7 2 -21 0 -30z m-634 2 c-3 -9
-8 -14 -10 -11 -3 3 -2 9 2 15 9 16 15 13 8 -4z m227 -35 c-16 -31 -23 -18 -8
15 7 15 14 23 16 17 2 -6 -2 -21 -8 -32z m-159 5 c12 8 -7 -42 -27 -68 -15
-20 -16 -20 -9 -2 5 11 11 38 13 60 3 22 7 32 10 22 2 -9 8 -15 13 -12z m439
-15 c0 -11 -4 -20 -10 -20 -5 0 -10 9 -10 20 0 11 5 20 10 20 6 0 10 -9 10
-20z m128 -16 c-3 -14 -5 -12 -10 9 -3 19 -2 25 4 19 6 -6 8 -18 6 -28z m-208
2 c0 -2 -7 -6 -15 -10 -8 -3 -15 -1 -15 4 0 6 7 10 15 10 8 0 15 -2 15 -4z
m-508 -28 c-7 -7 -12 -8 -12 -2 0 14 12 26 19 19 2 -3 -1 -11 -7 -17z m318 12
c0 -5 -5 -10 -11 -10 -5 0 -7 5 -4 10 3 6 8 10 11 10 2 0 4 -4 4 -10z m281
-37 c-8 -15 -10 -15 -11 -2 0 17 10 32 18 25 2 -3 -1 -13 -7 -23z m-261 9 c0
-5 -9 -17 -20 -27 -19 -17 -19 -17 -7 9 12 25 27 35 27 18z m-90 -17 c-7 -8
-17 -15 -22 -15 -6 0 -5 7 2 15 7 8 17 15 22 15 6 0 5 -7 -2 -15z m440 -4 c-5
-11 -15 -23 -21 -27 -6 -3 -3 5 6 20 20 30 30 35 15 7z m-250 -22 c-7 -11 -14
-18 -17 -15 -3 3 0 12 7 21 18 21 23 19 10 -6z m-290 7 c0 -3 -4 -8 -10 -11
-5 -3 -10 -1 -10 4 0 6 5 11 10 11 6 0 10 -2 10 -4z m223 -51 c-3 -9 -8 -14
-10 -11 -3 3 -2 9 2 15 9 16 15 13 8 -4z m834 -27 c-3 -8 -6 -5 -6 6 -1 11 2
17 5 13 3 -3 4 -12 1 -19z m1238 -138 c3 -6 -1 -7 -9 -4 -18 7 -21 14 -7 14 6
0 13 -4 16 -10z m-1380 -90 c-10 -11 -22 -20 -26 -20 -5 0 -1 9 8 20 10 11 22
20 27 20 5 0 1 -9 -9 -20z m-978 -192 c-3 -8 -6 -5 -6 6 -1 11 2 17 5 13 3 -3
4 -12 1 -19z m-257 -12 c0 -3 -4 -8 -10 -11 -5 -3 -10 -1 -10 4 0 6 5 11 10
11 6 0 10 -2 10 -4z m1207 -43 c-3 -10 -5 -2 -5 17 0 19 2 27 5 18 2 -10 2
-26 0 -35z m-1198 -70 c0 -25 -1 -26 -9 -8 -12 27 -12 35 0 35 6 0 10 -12 9
-27z m468 -45 c-3 -7 -5 -2 -5 12 0 14 2 19 5 13 2 -7 2 -19 0 -25z m657 -2
c-3 -9 -10 -16 -15 -16 -5 0 -4 9 3 20 14 22 21 20 12 -4z m-781 -1 c-3 -9 -8
-14 -10 -11 -3 3 -2 9 2 15 9 16 15 13 8 -4z m347 -19 c0 -3 -4 -8 -10 -11 -5
-3 -10 -1 -10 4 0 6 5 11 10 11 6 0 10 -2 10 -4z m65 -6 c-3 -5 -10 -10 -16
-10 -5 0 -9 5 -9 10 0 6 7 10 16 10 8 0 12 -4 9 -10z m-340 -41 c10 -42 2 -45
-11 -3 -6 19 -8 34 -3 34 4 0 10 -14 14 -31z m1235 -14 c14 -19 14 -19 -2 -6
-10 7 -18 18 -18 24 0 6 1 8 3 6 1 -2 9 -13 17 -24z m-1330 -51 c-8 -27 -8
-26 -9 16 0 32 2 40 9 29 5 -9 6 -28 0 -45z m617 -6 c-3 -8 -6 -5 -6 6 -1 11
2 17 5 13 3 -3 4 -12 1 -19z m-1327 -58 c-6 -12 -14 -19 -17 -17 -2 3 1 15 7
27 6 12 14 19 17 17 2 -3 -1 -15 -7 -27z m2125 -159 c-3 -6 -11 -11 -17 -11
-6 0 -6 6 2 15 14 17 26 13 15 -4z m-248 -23 c-3 -8 -6 -5 -6 6 -1 11 2 17 5
13 3 -3 4 -12 1 -19z m-73 -44 c3 -8 2 -12 -4 -9 -6 3 -10 10 -10 16 0 14 7
11 14 -7z m-564 -88 c0 -3 -4 -8 -10 -11 -5 -3 -10 -1 -10 4 0 6 5 11 10 11 6
0 10 -2 10 -4z m564 -152 c7 -19 2 -18 -19 6 -16 17 -16 20 -3 15 9 -4 19 -13
22 -21z m-89 -44 c3 -5 1 -10 -4 -10 -6 0 -11 5 -11 10 0 6 2 10 4 10 3 0 8
-4 11 -10z m-368 -232 c-3 -8 -6 -5 -6 6 -1 11 2 17 5 13 3 -3 4 -12 1 -19z"/>
<path d="M4520 7106 c0 -9 7 -16 16 -16 17 0 14 22 -4 28 -7 2 -12 -3 -12 -12z"/>
<path d="M1840 3431 c0 -6 4 -13 10 -16 6 -3 7 1 4 9 -7 18 -14 21 -14 7z"/>
<path d="M3440 3034 c0 -8 5 -12 10 -9 6 3 10 10 10 16 0 5 -4 9 -10 9 -5 0
-10 -7 -10 -16z"/>
<path d="M4018 7143 c6 -2 18 -2 25 0 6 3 1 5 -13 5 -14 0 -19 -2 -12 -5z"/>
<path d="M4325 7030 c20 -22 30 -27 19 -8 -5 8 2 9 24 5 17 -4 34 -3 36 2 7
10 -27 21 -68 21 -28 0 -29 0 -11 -20z"/>
<path d="M4370 7001 c0 -9 52 -31 73 -31 16 0 4 8 -36 25 -20 8 -37 11 -37 6z"/>
<path d="M4497 6939 c7 -7 15 -10 18 -7 3 3 -2 9 -12 12 -14 6 -15 5 -6 -5z"/>
<path d="M4531 6914 c0 -11 3 -14 6 -6 3 7 2 16 -1 19 -3 4 -6 -2 -5 -13z"/>
<path d="M4615 6850 c3 -5 8 -10 11 -10 2 0 4 5 4 10 0 6 -5 10 -11 10 -5 0
-7 -4 -4 -10z"/>
<path d="M4655 6810 c3 -5 8 -10 11 -10 2 0 4 5 4 10 0 6 -5 10 -11 10 -5 0
-7 -4 -4 -10z"/>
<path d="M4350 6700 c0 -5 7 -10 15 -10 8 0 15 5 15 10 0 6 -7 10 -15 10 -8 0
-15 -4 -15 -10z"/>
<path d="M3838 6523 c7 -3 16 -2 19 1 4 3 -2 6 -13 5 -11 0 -14 -3 -6 -6z"/>
<path d="M3903 6513 c9 -2 23 -2 30 0 6 3 -1 5 -18 5 -16 0 -22 -2 -12 -5z"/>
<path d="M2250 6494 c0 -8 5 -12 10 -9 6 4 8 11 5 16 -9 14 -15 11 -15 -7z"/>
<path d="M4320 6470 c0 -5 5 -10 11 -10 5 0 7 5 4 10 -3 6 -8 10 -11 10 -2 0
-4 -4 -4 -10z"/>
<path d="M4270 6460 c20 -13 33 -13 25 0 -3 6 -14 10 -23 10 -15 0 -15 -2 -2
-10z"/>
<path d="M4447 6432 c-3 -4 1 -13 9 -19 7 -7 15 -9 17 -5 3 4 -1 13 -9 19 -7
7 -15 9 -17 5z"/>
<path d="M2495 6400 c-3 -5 1 -10 10 -10 9 0 13 5 10 10 -3 6 -8 10 -10 10 -2
0 -7 -4 -10 -10z"/>
<path d="M4490 6401 c0 -5 7 -11 14 -14 10 -4 13 -1 9 9 -6 15 -23 19 -23 5z"/>
<path d="M4327 6389 c7 -7 15 -10 18 -7 3 3 -2 9 -12 12 -14 6 -15 5 -6 -5z"/>
<path d="M4195 6360 c-3 -5 -1 -10 4 -10 6 0 11 5 11 10 0 6 -2 10 -4 10 -3 0
-8 -4 -11 -10z"/>
<path d="M4188 6313 c-6 -24 5 -38 22 -28 6 3 10 11 10 16 0 6 -4 8 -9 4 -5
-3 -11 3 -13 12 -3 15 -5 14 -10 -4z"/>
<path d="M4495 6290 c10 -11 20 -18 23 -15 7 6 -18 35 -31 35 -5 0 -2 -9 8
-20z"/>
<path d="M5235 6271 c-16 -19 -16 -20 4 -18 13 1 21 8 21 19 0 23 -3 23 -25
-1z"/>
<path d="M4954 5861 c4 -5 2 -11 -4 -13 -6 -2 0 -9 12 -17 20 -13 22 -12 11 1
-10 11 -10 17 -1 26 9 9 8 12 -6 12 -9 0 -15 -4 -12 -9z"/>
<path d="M4980 5761 c0 -5 5 -13 10 -16 6 -3 10 -2 10 4 0 5 -4 13 -10 16 -5
3 -10 2 -10 -4z"/>
<path d="M1830 5645 c0 -8 2 -15 4 -15 2 0 6 7 10 15 3 8 1 15 -4 15 -6 0 -10
-7 -10 -15z"/>
<path d="M1680 5355 c0 -13 4 -14 20 -5 11 6 20 13 20 15 0 3 -9 5 -20 5 -11
0 -20 -7 -20 -15z"/>
<path d="M3027 5279 c6 -6 9 -19 5 -27 -5 -14 -4 -15 10 -2 12 12 13 17 2 27
-7 7 -16 13 -20 13 -5 0 -3 -5 3 -11z"/>
<path d="M4498 5183 c7 -3 16 -2 19 1 4 3 -2 6 -13 5 -11 0 -14 -3 -6 -6z"/>
<path d="M4440 5170 c0 -5 5 -10 10 -10 6 0 10 5 10 10 0 6 -4 10 -10 10 -5 0
-10 -4 -10 -10z"/>
<path d="M4350 5159 c0 -5 9 -9 20 -9 11 0 20 2 20 4 0 2 -9 6 -20 9 -11 3
-20 1 -20 -4z"/>
<path d="M4510 5165 c0 -3 8 -13 19 -24 12 -12 23 -16 32 -10 11 7 10 9 -3 9
-10 0 -18 4 -18 9 0 5 -7 11 -15 15 -8 3 -15 3 -15 1z"/>
<path d="M4310 5135 c0 -12 56 -28 105 -31 49 -3 49 -3 20 10 -20 9 -36 10
-49 4 -12 -7 -21 -7 -25 0 -7 11 -51 26 -51 17z"/>
<path d="M4448 5123 c7 -3 16 -2 19 1 4 3 -2 6 -13 5 -11 0 -14 -3 -6 -6z"/>
<path d="M4530 5107 c0 -5 -13 -7 -30 -5 -16 3 -30 1 -30 -4 0 -4 -8 -8 -18
-8 -10 0 -23 -5 -30 -12 -9 -9 -15 -9 -23 -1 -6 6 -18 9 -25 6 -8 -3 -25 2
-39 11 -31 21 -45 21 -19 0 18 -14 16 -15 -27 -11 -26 2 -54 0 -63 -5 -12 -7
-14 -5 -9 8 5 14 3 16 -13 9 -16 -7 -38 -11 -67 -14 -5 -1 -5 -6 -2 -12 4 -6
13 -8 21 -5 8 3 11 0 7 -10 -3 -9 -12 -13 -22 -9 -33 13 -71 17 -88 10 -16 -7
-15 -9 7 -15 l25 -8 -26 -1 c-14 -1 -30 4 -37 11 -9 9 -12 9 -12 0 0 -6 -6 -9
-14 -6 -18 7 -32 -16 -16 -26 8 -5 5 -9 -9 -13 -24 -6 -51 27 -28 36 9 4 9 6
0 6 -19 1 -26 -18 -12 -35 6 -8 9 -18 5 -22 -4 -4 -15 2 -23 13 -15 20 -15 20
-10 -2 3 -15 1 -23 -8 -23 -7 0 -16 15 -20 33 l-8 32 -6 -30 c-4 -16 -12 -29
-19 -27 -7 1 -12 -6 -12 -15 0 -15 -2 -16 -10 -3 -5 8 -10 10 -10 5 0 -6 -16
-19 -35 -29 -19 -10 -32 -23 -28 -29 4 -6 -5 -7 -23 -3 -21 5 -25 4 -14 -4 16
-10 9 -13 -25 -11 -15 1 -25 -8 -35 -34 -9 -22 -20 -35 -29 -33 -28 4 -59 -12
-64 -32 -3 -11 -1 -23 4 -26 5 -3 9 2 9 10 0 9 5 16 10 16 19 0 10 -19 -22
-44 -24 -19 -28 -26 -15 -26 9 0 17 -6 17 -13 0 -8 20 -22 45 -33 42 -17 57
-39 38 -58 -15 -14 -23 -99 -14 -134 7 -26 8 -26 15 -5 4 12 13 20 20 17 7 -3
25 0 40 6 15 5 25 6 22 1 -9 -14 16 -19 43 -9 15 5 28 5 35 -2 13 -13 29 -13
21 0 -3 6 1 10 9 10 9 0 16 -5 16 -11 0 -6 9 -8 20 -4 14 4 20 2 20 -8 0 -8 7
-17 15 -21 10 -4 13 -14 9 -34 -6 -28 -4 -29 21 -24 15 2 23 7 18 11 -16 12
-13 30 4 24 12 -5 15 -2 10 10 -4 10 0 20 11 26 16 9 16 10 0 16 -30 12 -20
25 17 25 19 0 35 -4 35 -8 0 -5 69 -9 153 -10 197 -1 187 0 187 -16 0 -9 -17
-16 -52 -21 -29 -4 -59 -12 -66 -18 -10 -8 -16 -7 -21 2 -6 10 -12 9 -25 -4
-22 -22 -20 -28 6 -22 12 4 28 1 35 -5 10 -8 13 -6 13 7 0 13 5 16 23 11 38
-12 52 -11 49 2 -2 11 7 13 38 8 27 -4 40 -2 40 6 0 6 12 1 26 -13 l26 -24 -7
33 c-7 32 8 46 19 17 8 -21 26 -19 26 4 0 10 9 21 20 24 15 4 20 0 20 -14 0
-11 7 -19 17 -19 13 0 14 3 6 11 -19 19 28 49 77 49 27 0 39 4 35 11 -4 6 2
13 13 15 15 5 18 12 15 37 -3 18 -5 37 -6 44 0 7 -6 14 -14 17 -19 8 -16 34 5
39 11 3 7 7 -16 12 -22 5 -31 13 -30 23 3 17 -60 54 -76 45 -4 -3 -11 -1 -15
5 -4 6 -45 16 -91 21 -108 14 -269 -4 -416 -45 -71 -20 -101 -15 -83 14 7 11
28 28 48 38 20 10 57 33 83 51 26 18 52 33 58 33 6 0 31 11 58 24 81 40 121
56 165 63 28 4 51 16 70 36 34 37 28 46 -16 22 -33 -17 -70 -18 -71 -1 -1 10
34 17 102 19 45 2 62 27 17 27 -14 0 -25 5 -25 10 0 6 27 9 63 9 53 -1 57 -3
27 -9 -19 -4 -28 -8 -20 -9 9 0 15 -11 15 -26 0 -20 -5 -25 -26 -25 -15 0 -33
-7 -40 -16 -12 -15 -11 -16 11 -9 22 7 40 11 73 14 5 1 5 6 2 11 -3 6 5 10 19
10 35 0 42 18 9 23 l-28 4 28 2 c15 0 30 -5 33 -13 3 -8 13 -12 25 -9 21 6 25
-7 8 -24 -8 -8 -8 -13 0 -18 15 -9 51 4 51 18 0 7 11 13 25 13 15 1 25 -3 25
-12 0 -8 -9 -14 -19 -14 -11 0 -23 -4 -26 -10 -3 -5 -21 -10 -38 -10 -20 0
-27 -3 -20 -8 14 -9 43 -7 106 4 25 4 37 3 37 -5 0 -6 -11 -11 -25 -11 -25 0
-95 -25 -95 -33 0 -7 54 -2 67 6 6 4 35 12 64 17 54 10 72 20 53 27 -6 2 -9
15 -6 28 4 21 1 25 -21 25 -14 0 -29 5 -32 10 -4 6 -11 8 -16 5 -5 -4 -12 1
-15 9 -3 9 -24 20 -45 26 -21 5 -57 15 -79 20 -23 6 -38 15 -34 21 3 6 -10 9
-35 8 -23 -2 -41 -7 -41 -12z m95 -37 c3 -5 -1 -10 -9 -10 -8 0 -18 5 -21 10
-3 6 1 10 9 10 8 0 18 -4 21 -10z m-261 -9 c15 -6 12 -9 -16 -17 -25 -8 -37
-8 -46 2 -9 10 -8 14 6 17 25 7 35 6 56 -2z m354 -27 c-7 -6 -87 9 -83 16 3 4
23 3 45 -2 23 -6 39 -12 38 -14z m-508 1 c-7 -9 -15 -13 -19 -10 -3 3 1 10 9
15 21 14 24 12 10 -5z m73 -22 c-7 -2 -21 -2 -30 0 -10 3 -4 5 12 5 17 0 24
-2 18 -5z m-373 -69 c0 -2 -12 -4 -27 -4 -21 0 -24 3 -14 9 13 8 41 5 41 -5z
m528 -195 c26 -7 51 -16 57 -20 5 -5 17 -9 26 -9 15 0 83 -69 76 -77 -2 -1
-12 0 -24 3 -15 4 -19 11 -15 27 4 16 2 19 -11 14 -17 -6 -78 12 -89 28 -5 6
-8 6 -8 -2 0 -6 5 -15 10 -18 6 -4 7 -11 4 -17 -5 -7 -11 -5 -20 6 -10 14 -17
15 -32 7 -15 -8 -24 -6 -41 10 -17 16 -25 18 -36 9 -10 -8 -16 -8 -26 3 -7 7
-25 11 -41 9 -20 -3 -28 0 -28 11 0 9 8 17 18 19 39 9 136 7 180 -3z m-246
-31 c-9 -9 -15 -9 -24 1 -11 10 -10 11 5 6 10 -5 17 -2 17 6 0 7 3 9 7 6 4 -4
1 -13 -5 -19z m322 -53 c11 -8 16 -18 12 -22 -3 -4 -16 3 -28 15 -25 25 -13
29 16 7z m-84 -66 c0 -5 -9 -4 -20 3 -10 7 -23 8 -27 4 -4 -5 -2 -11 6 -14 11
-4 11 -6 0 -14 -11 -7 -11 -11 -1 -15 6 -2 10 -9 6 -14 -9 -15 -22 -10 -27 9
-3 10 -5 6 -6 -10 0 -16 -6 -28 -12 -28 -7 0 -9 10 -5 28 3 15 9 38 12 51 3
14 7 28 10 32 5 9 64 -19 64 -32z m-372 -83 c-5 -6 -13 -5 -20 2 -7 7 -21 12
-31 12 -17 0 -18 2 -6 17 12 15 12 16 -3 10 -26 -9 -22 2 9 29 l27 23 17 -42
c9 -23 12 -46 7 -51z m442 18 c0 -4 -8 -13 -17 -20 -22 -16 -73 -18 -73 -3 0
7 11 8 30 4 22 -5 32 -3 36 9 6 15 24 23 24 10z m-580 -39 c-7 -9 -15 -13 -17
-11 -7 7 7 26 19 26 6 0 6 -6 -2 -15z m490 -15 c-19 -13 -30 -13 -30 0 0 6 10
10 23 10 18 0 19 -2 7 -10z"/>
<path d="M4760 5080 c0 -11 40 -50 52 -50 4 0 8 7 8 15 0 8 -7 15 -15 15 -9 0
-18 7 -21 15 -7 17 -24 21 -24 5z"/>
<path d="M2765 4999 c-10 -32 25 -74 63 -76 28 -1 30 1 23 25 -5 15 -6 33 -3
41 3 10 -1 12 -16 9 -11 -3 -30 0 -41 8 -18 13 -20 12 -26 -7z"/>
<path d="M2353 4973 c-15 -5 -17 -23 -4 -23 5 0 11 7 15 15 3 8 4 15 3 14 -1
0 -8 -3 -14 -6z"/>
<path d="M2430 4970 c0 -5 5 -10 11 -10 5 0 7 5 4 10 -3 6 -8 10 -11 10 -2 0
-4 -4 -4 -10z"/>
<path d="M2520 4965 c0 -8 2 -15 4 -15 2 0 6 7 10 15 3 8 1 15 -4 15 -6 0 -10
-7 -10 -15z"/>
<path d="M2585 4970 c3 -5 8 -10 11 -10 2 0 4 5 4 10 0 6 -5 10 -11 10 -5 0
-7 -4 -4 -10z"/>
<path d="M2485 4960 c3 -5 8 -10 11 -10 2 0 4 5 4 10 0 6 -5 10 -11 10 -5 0
-7 -4 -4 -10z"/>
<path d="M2550 4960 c0 -5 5 -10 10 -10 6 0 10 5 10 10 0 6 -4 10 -10 10 -5 0
-10 -4 -10 -10z"/>
<path d="M2403 4953 c-7 -3 -13 -13 -13 -23 0 -10 -7 -21 -16 -24 -21 -8 -34
-8 -33 2 3 17 -3 19 -36 12 -20 -4 -35 -4 -35 1 0 5 -7 9 -15 9 -18 0 -20 -21
-2 -39 10 -11 9 -13 -6 -8 -15 6 -17 3 -12 -14 6 -16 4 -20 -6 -14 -11 7 -12
5 -1 -6 10 -11 16 -11 33 -1 12 8 24 11 27 7 9 -9 -19 -25 -44 -25 -22 0 -49
43 -39 61 4 5 -1 9 -9 9 -9 0 -16 -7 -16 -15 0 -10 -9 -15 -27 -14 -16 1 -21
3 -11 6 9 2 19 11 22 19 4 12 1 14 -14 9 -16 -5 -19 -3 -15 12 3 10 1 9 -6 -4
-12 -24 -29 -31 -29 -13 0 13 -40 13 -60 0 -13 -8 -12 -10 3 -10 19 0 23 -25
5 -36 -6 -4 -8 -3 -4 4 8 13 -11 20 -42 14 -13 -3 -28 -16 -34 -31 -10 -22
-12 -23 -16 -7 -2 10 1 23 7 29 15 15 14 28 -3 25 -8 -2 -14 1 -13 7 1 5 8 9
15 7 6 -2 12 4 12 12 0 8 -9 14 -22 13 -13 0 -31 3 -40 7 -14 6 -20 1 -29 -20
-10 -26 -12 -27 -18 -10 -6 15 -11 8 -29 -33 -11 -28 -26 -51 -31 -51 -12 0
-15 -39 -5 -64 4 -11 13 -14 32 -9 17 4 23 2 18 -6 -4 -6 -16 -11 -26 -11 -10
0 -22 -4 -25 -10 -3 -5 1 -10 9 -10 10 0 16 -9 16 -25 0 -16 6 -25 15 -25 8 0
15 5 15 11 0 6 7 3 16 -6 9 -9 13 -19 9 -23 -4 -4 -10 -1 -12 5 -3 10 -8 9
-20 -2 -18 -19 -10 -65 12 -65 8 0 12 -6 9 -14 -3 -9 3 -17 15 -21 12 -3 19
-11 15 -16 -4 -6 -10 -6 -18 0 -18 15 -23 6 -18 -29 3 -23 10 -30 26 -30 15 0
17 -3 7 -9 -17 -11 1 -47 29 -56 14 -4 20 -15 20 -36 0 -17 -4 -28 -9 -25 -5
4 -7 -3 -4 -15 4 -14 8 -17 13 -9 5 9 9 9 14 1 4 -6 29 -10 55 -10 27 1 57 -3
67 -9 16 -9 14 -11 -16 -19 l-35 -10 38 -13 c20 -8 37 -18 37 -23 0 -5 16 -7
35 -6 41 4 98 -36 74 -52 -39 -25 81 -44 207 -34 47 4 83 10 80 13 -3 2 -51 6
-107 8 -56 2 -104 6 -107 9 -3 2 0 10 6 18 6 7 9 23 5 35 -5 20 -1 22 30 22
20 0 38 4 42 10 3 5 25 8 48 7 23 0 47 2 54 6 6 4 15 3 18 -3 5 -8 11 -7 21 1
7 6 20 9 28 6 8 -3 19 0 25 7 6 7 25 12 41 11 34 -2 48 11 31 28 -8 8 -11 7
-11 -2 0 -10 -10 -12 -39 -7 -23 3 -42 2 -46 -4 -4 -6 -10 -8 -15 -5 -5 3 -19
1 -31 -5 -17 -9 -23 -8 -33 6 -9 12 -15 14 -20 5 -9 -14 -26 -5 -26 14 0 14
78 27 86 14 2 -4 37 2 76 13 40 10 87 23 104 27 18 5 36 11 42 15 18 11 117
10 137 -1 l20 -12 -20 -15 c-19 -16 -19 -16 5 -7 40 14 142 12 137 -3 -3 -7
-1 -19 3 -27 7 -11 10 -10 16 4 3 9 10 14 15 11 5 -3 7 -10 4 -15 -4 -5 12 -7
39 -4 35 4 47 2 54 -11 17 -30 28 -6 27 58 -1 35 2 71 7 80 5 10 3 18 -4 20
-6 2 -12 11 -14 19 -1 7 -5 21 -9 30 -3 9 1 23 9 32 20 20 20 27 1 27 -15 0
-16 24 -2 47 4 6 3 14 -3 18 -16 10 -2 25 17 18 9 -4 19 1 25 11 5 9 13 14 19
11 5 -4 9 3 9 14 0 25 -30 28 -30 4 -1 -17 -1 -17 -14 0 -7 9 -18 17 -24 17
-6 0 -14 5 -17 11 -5 7 5 8 30 3 30 -5 37 -4 33 7 -3 8 -14 13 -26 13 -13 -1
-19 3 -15 12 3 8 -1 14 -11 14 -10 0 -16 9 -17 23 0 13 -2 16 -6 7 -2 -8 -7
-22 -10 -30 -4 -8 -5 -19 -4 -25 1 -5 -6 -1 -14 9 -8 11 -15 26 -15 33 0 12
-13 17 -32 14 -5 0 -8 7 -8 16 0 13 -3 14 -12 5 -18 -18 -28 -15 -28 10 0 21
-1 21 -13 3 -10 -12 -16 -14 -21 -7 -4 7 -4 17 0 23 4 8 -3 9 -24 5 -25 -6
-33 -3 -51 20 l-22 28 -15 -22 c-17 -24 -37 -21 -27 4 5 13 0 15 -26 11 -22
-4 -31 -1 -31 9 0 19 -16 18 -67 -7 -36 -17 -42 -24 -32 -35 10 -12 7 -14 -20
-12 -18 1 -35 6 -37 10 -3 5 -10 6 -15 3 -5 -4 -12 0 -15 9 -4 11 -18 13 -55
10 -45 -3 -66 7 -36 19 7 4 6 6 -5 6 -9 1 -19 9 -21 19 -4 13 -5 13 -6 -4 0
-12 -9 -24 -20 -27 -25 -6 -34 2 -20 19 13 16 8 32 -8 27z m-98 -63 c-3 -5
-12 -7 -20 -3 -21 7 -19 13 6 13 11 0 18 -4 14 -10z m-279 -53 c1 -7 -7 -14
-17 -14 -21 -2 -26 23 -6 30 14 5 20 1 23 -16z m834 13 c0 -5 -4 -10 -10 -10
-5 0 -10 5 -10 10 0 6 5 10 10 10 6 0 10 -4 10 -10z m-750 -10 c0 -5 -5 -10
-11 -10 -5 0 -7 5 -4 10 3 6 8 10 11 10 2 0 4 -4 4 -10z m75 0 c3 -5 2 -10 -4
-10 -5 0 -13 5 -16 10 -3 6 -2 10 4 10 5 0 13 -4 16 -10z m-27 -19 c3 -8 -1
-12 -9 -9 -7 2 -15 10 -17 17 -3 8 1 12 9 9 7 -2 15 -10 17 -17z m182 9 c0 -5
-4 -10 -10 -10 -5 0 -10 5 -10 10 0 6 5 10 10 10 6 0 10 -4 10 -10z m-483 -62
c-3 -8 -6 -5 -6 6 -1 11 2 17 5 13 3 -3 4 -12 1 -19z m632 -105 c55 -26 70
-37 60 -44 -11 -7 -10 -9 4 -9 11 0 15 -5 11 -11 -3 -6 -14 -9 -24 -6 -10 2
-53 -2 -95 -9 -43 -7 -82 -11 -86 -8 -5 3 -9 1 -9 -4 0 -15 -101 -27 -110 -13
-3 7 -14 9 -23 6 -8 -4 -25 -1 -37 5 -20 11 -21 10 -16 -8 6 -19 5 -20 -18 -9
-30 14 -34 27 -8 28 15 0 15 1 -2 8 -18 7 -18 8 -3 14 28 10 20 30 -8 23 -33
-9 -50 1 -34 20 9 11 6 14 -17 15 -22 1 -17 4 21 13 42 11 46 13 25 18 -14 3
11 3 55 1 54 -2 75 0 65 6 -10 7 17 8 80 5 81 -5 106 -11 169 -41z m-464 -3
c-3 -5 -12 -10 -18 -10 -7 0 -6 4 3 10 19 12 23 12 15 0z m45 -24 c0 -2 -7 -7
-16 -10 -8 -3 -12 -2 -9 4 6 10 25 14 25 6z m-27 -73 c-13 -2 -33 -2 -45 0
-13 2 -3 4 22 4 25 0 35 -2 23 -4z m-50 -60 c-7 -2 -21 -2 -30 0 -10 3 -4 5
12 5 17 0 24 -2 18 -5z m327 -18 c-14 -7 -27 -11 -30 -9 -6 7 22 24 40 23 9 0
5 -6 -10 -14z m107 -67 c-3 -8 -6 -5 -6 6 -1 11 2 17 5 13 3 -3 4 -12 1 -19z
m-397 -64 c0 -8 -5 -12 -10 -9 -6 4 -8 11 -5 16 9 14 15 11 15 -7z m337 -30
c-3 -3 -12 -4 -19 -1 -8 3 -5 6 6 6 11 1 17 -2 13 -5z"/>
<path d="M1855 4940 c-3 -5 -1 -10 4 -10 6 0 11 5 11 10 0 6 -2 10 -4 10 -3 0
-8 -4 -11 -10z"/>
<path d="M2000 4940 c0 -5 5 -10 10 -10 6 0 10 5 10 10 0 6 -4 10 -10 10 -5 0
-10 -4 -10 -10z"/>
<path d="M2582 4934 c2 -14 -2 -18 -17 -16 -16 2 -17 1 -5 -7 8 -6 21 -11 28
-11 15 0 16 36 1 45 -6 4 -9 0 -7 -11z"/>
<path d="M2520 4926 c0 -9 5 -16 10 -16 6 0 10 4 10 9 0 6 -4 13 -10 16 -5 3
-10 -1 -10 -9z"/>
<path d="M2630 4904 c-13 -13 -19 -24 -12 -24 6 0 12 4 12 9 0 5 9 11 20 13
11 2 17 7 12 14 -5 7 -15 3 -32 -12z"/>
<path d="M4829 4923 c-1 -4 -1 -11 0 -15 0 -5 -3 -8 -7 -8 -5 0 -12 3 -16 8
-14 13 -54 9 -49 -6 8 -19 108 -12 108 8 0 15 -34 28 -36 13z"/>
<path d="M2005 4901 c-3 -5 -1 -12 5 -16 5 -3 10 1 10 9 0 18 -6 21 -15 7z"/>
<path d="M1721 4864 c0 -11 3 -14 6 -6 3 7 2 16 -1 19 -3 4 -6 -2 -5 -13z"/>
<path d="M3625 4870 c3 -5 8 -10 11 -10 2 0 4 5 4 10 0 6 -5 10 -11 10 -5 0
-7 -4 -4 -10z"/>
<path d="M4865 4870 c-3 -5 3 -10 15 -10 12 0 18 5 15 10 -3 6 -10 10 -15 10
-5 0 -12 -4 -15 -10z"/>
<path d="M4795 4862 c2 -3 0 -11 -6 -19 -6 -7 -9 -13 -6 -13 8 0 62 30 57 31
-17 5 -50 5 -45 1z"/>
<path d="M4840 4815 c0 -8 3 -15 6 -15 3 0 12 7 20 15 14 13 13 15 -5 15 -12
0 -21 -6 -21 -15z"/>
<path d="M5230 4781 c0 -5 5 -13 10 -16 6 -3 10 -2 10 4 0 5 -4 13 -10 16 -5
3 -10 2 -10 -4z"/>
<path d="M3226 4764 c-9 -24 -2 -26 12 -4 7 11 8 20 3 20 -5 0 -12 -7 -15 -16z"/>
<path d="M5240 4737 c0 -10 8 -17 18 -17 9 0 13 4 7 8 -5 4 -13 11 -17 16 -5
5 -8 2 -8 -7z"/>
<path d="M5276 4675 c9 -14 19 -24 21 -21 7 7 -16 46 -28 46 -5 0 -2 -11 7
-25z"/>
<path d="M5243 4645 c7 -13 14 -20 15 -14 5 14 -6 39 -17 39 -5 0 -4 -11 2
-25z"/>
<path d="M5241 4584 c0 -11 3 -14 6 -6 3 7 2 16 -1 19 -3 4 -6 -2 -5 -13z"/>
<path d="M4000 4466 c0 -9 5 -16 10 -16 6 0 10 4 10 9 0 6 -4 13 -10 16 -5 3
-10 -1 -10 -9z"/>
<path d="M4071 4468 c-1 -20 -17 -24 -23 -6 -3 7 -7 8 -11 2 -7 -13 26 -34 40
-26 6 4 7 15 2 27 -6 17 -8 17 -8 3z"/>
<path d="M4288 4473 c7 -3 16 -2 19 1 4 3 -2 6 -13 5 -11 0 -14 -3 -6 -6z"/>
<path d="M4141 4448 c-15 -23 -10 -31 16 -26 16 2 17 6 8 25 -11 21 -11 21
-24 1z"/>
<path d="M1850 4440 c-13 -8 -12 -10 3 -10 9 0 17 5 17 10 0 12 -1 12 -20 0z"/>
<path d="M5346 4432 c-2 -4 -1 -14 5 -22 7 -12 9 -10 9 8 0 23 -5 28 -14 14z"/>
<path d="M4480 4410 c0 -5 5 -10 10 -10 6 0 10 5 10 10 0 6 -4 10 -10 10 -5 0
-10 -4 -10 -10z"/>
<path d="M3820 4380 c0 -6 7 -10 15 -10 8 0 15 2 15 4 0 2 -7 6 -15 10 -8 3
-15 1 -15 -4z"/>
<path d="M3887 4366 c-4 -9 -13 -16 -21 -16 -7 0 -16 -7 -20 -15 -7 -18 10
-20 17 -2 4 8 12 4 26 -13 11 -14 23 -21 28 -17 4 5 1 12 -7 17 -12 8 -11 10
6 10 12 0 25 -7 28 -16 4 -10 15 -14 34 -11 21 3 32 -1 41 -15 6 -10 16 -16
21 -13 6 3 10 1 10 -4 0 -6 9 -11 19 -11 11 0 23 -5 26 -11 4 -5 17 -9 28 -7
12 1 28 -1 35 -6 20 -12 177 -17 204 -6 18 7 11 9 -32 8 -60 -1 -135 16 -146
33 -3 6 -12 8 -20 5 -21 -8 -64 11 -64 29 0 8 -7 15 -15 15 -8 0 -15 -4 -15
-10 0 -5 5 -10 11 -10 5 0 7 -5 3 -11 -5 -8 -12 -5 -23 9 -17 23 -71 47 -71
33 0 -17 -36 0 -45 22 -12 26 -50 35 -58 13z m33 -6 c0 -5 -4 -10 -10 -10 -5
0 -10 5 -10 10 0 6 5 10 10 10 6 0 10 -4 10 -10z"/>
<path d="M5367 4363 c-4 -3 -7 -11 -7 -17 0 -6 5 -5 12 2 6 6 9 14 7 17 -3 3
-9 2 -12 -2z"/>
<path d="M2671 4348 c-1 -10 -5 -18 -11 -18 -5 0 -10 -5 -10 -12 0 -8 6 -7 16
4 9 9 14 22 11 30 -4 9 -6 7 -6 -4z"/>
<path d="M4265 4290 c3 -5 11 -10 16 -10 6 0 7 5 4 10 -3 6 -11 10 -16 10 -6
0 -7 -4 -4 -10z"/>
<path d="M2745 4280 c-3 -6 1 -7 9 -4 18 7 21 14 7 14 -6 0 -13 -4 -16 -10z"/>
<path d="M4373 4283 c9 -2 23 -2 30 0 6 3 -1 5 -18 5 -16 0 -22 -2 -12 -5z"/>
<path d="M2845 4230 c3 -5 8 -10 11 -10 2 0 4 5 4 10 0 6 -5 10 -11 10 -5 0
-7 -4 -4 -10z"/>
<path d="M2645 4219 c-4 -6 -5 -12 -2 -15 2 -3 7 2 10 11 7 17 1 20 -8 4z"/>
<path d="M2306 4203 c-11 -11 -6 -23 8 -23 8 0 17 4 20 9 7 10 -19 23 -28 14z"/>
<path d="M2820 4205 c-1 -5 -2 -13 -1 -17 0 -5 -9 -8 -21 -8 -16 0 -19 -3 -10
-8 14 -9 6 -42 -10 -42 -5 0 -6 6 -2 13 6 10 4 10 -7 0 -7 -7 -22 -13 -33 -13
-19 0 -19 1 3 13 26 13 40 37 22 37 -6 0 -11 -4 -11 -9 0 -16 -70 -35 -82 -23
-8 8 -17 6 -32 -3 -11 -8 -32 -16 -46 -18 -14 -3 -37 -10 -52 -15 -14 -6 -66
-14 -114 -18 -122 -10 -75 -28 54 -21 55 3 90 2 87 -4 -8 -12 51 -12 75 1 10
5 31 11 48 12 17 1 28 6 26 10 -3 4 5 10 18 12 13 3 37 8 53 11 17 3 38 6 47
6 10 0 20 4 23 10 4 5 15 9 26 9 21 0 26 15 8 25 -6 4 -8 13 -5 21 3 7 1 16
-4 19 -6 4 -10 1 -10 -4 0 -15 -37 -14 -43 2 -3 6 -6 8 -7 2z m20 -49 c0 -11
-19 -15 -25 -6 -3 5 1 10 9 10 9 0 16 -2 16 -4z"/>
<path d="M2900 4185 c0 -9 5 -15 11 -13 6 2 11 8 11 13 0 5 -5 11 -11 13 -6 2
-11 -4 -11 -13z"/>
<path d="M5538 3933 c7 -3 16 -2 19 1 4 3 -2 6 -13 5 -11 0 -14 -3 -6 -6z"/>
<path d="M6725 3860 c-3 -5 -2 -10 4 -10 5 0 13 5 16 10 3 6 2 10 -4 10 -5 0
-13 -4 -16 -10z"/>
<path d="M6993 3863 c9 -2 25 -2 35 0 9 3 1 5 -18 5 -19 0 -27 -2 -17 -5z"/>
<path d="M7098 3863 c7 -3 16 -2 19 1 4 3 -2 6 -13 5 -11 0 -14 -3 -6 -6z"/>
<path d="M3076 3837 c3 -10 9 -15 12 -12 3 3 0 11 -7 18 -10 9 -11 8 -5 -6z"/>
<path d="M1491 3808 c0 -7 4 -22 9 -33 7 -17 9 -15 9 13 1 17 -3 32 -9 32 -5
0 -10 -6 -9 -12z"/>
<path d="M5625 3790 c-3 -5 1 -10 10 -10 9 0 13 5 10 10 -3 6 -8 10 -10 10 -2
0 -7 -4 -10 -10z"/>
<path d="M6413 3793 c15 -2 37 -2 50 0 12 2 0 4 -28 4 -27 0 -38 -2 -22 -4z"/>
<path d="M6673 3793 c9 -2 23 -2 30 0 6 3 -1 5 -18 5 -16 0 -22 -2 -12 -5z"/>
<path d="M6822 3793 c59 -2 158 -2 220 0 62 1 14 3 -107 3 -121 0 -172 -2
-113 -3z"/>
<path d="M5675 3780 c3 -5 8 -10 11 -10 2 0 4 5 4 10 0 6 -5 10 -11 10 -5 0
-7 -4 -4 -10z"/>
<path d="M5123 3752 c-1 -22 0 -24 9 -8 6 10 6 22 2 26 -5 5 -10 -3 -11 -18z"/>
<path d="M5161 3714 c0 -11 3 -14 6 -6 3 7 2 16 -1 19 -3 4 -6 -2 -5 -13z"/>
<path d="M1743 3635 c-9 -24 1 -27 15 -5 8 13 8 20 2 20 -6 0 -13 -7 -17 -15z"/>
<path d="M1800 3619 c0 -11 5 -17 10 -14 6 3 10 13 10 21 0 8 -4 14 -10 14 -5
0 -10 -9 -10 -21z"/>
<path d="M5125 3610 c-3 -5 -1 -10 4 -10 6 0 11 5 11 10 0 6 -2 10 -4 10 -3 0
-8 -4 -11 -10z"/>
<path d="M1390 3428 c0 -16 5 -28 11 -28 6 0 9 -9 6 -20 -3 -11 -1 -18 4 -14
13 8 11 28 -6 60 l-15 29 0 -27z"/>
<path d="M4980 3440 c0 -5 5 -10 10 -10 6 0 10 5 10 10 0 6 -4 10 -10 10 -5 0
-10 -4 -10 -10z"/>
<path d="M1381 3374 c0 -11 3 -14 6 -6 3 7 2 16 -1 19 -3 4 -6 -2 -5 -13z"/>
<path d="M1391 3334 c0 -11 3 -14 6 -6 3 7 2 16 -1 19 -3 4 -6 -2 -5 -13z"/>
<path d="M728 3323 c7 -3 16 -2 19 1 4 3 -2 6 -13 5 -11 0 -14 -3 -6 -6z"/>
<path d="M4915 3311 c-3 -5 -1 -12 5 -16 5 -3 10 1 10 9 0 18 -6 21 -15 7z"/>
<path d="M2540 3295 c-7 -8 -21 -15 -32 -15 -10 0 -16 -4 -13 -10 9 -15 41
-12 55 5 7 8 22 15 34 15 17 0 18 2 6 10 -21 14 -36 12 -50 -5z"/>
<path d="M2610 3290 c0 -5 5 -10 11 -10 5 0 7 5 4 10 -3 6 -8 10 -11 10 -2 0
-4 -4 -4 -10z"/>
<path d="M3771 3274 c0 -11 3 -14 6 -6 3 7 2 16 -1 19 -3 4 -6 -2 -5 -13z"/>
<path d="M6365 3280 c4 -6 11 -8 16 -5 14 9 11 15 -7 15 -8 0 -12 -5 -9 -10z"/>
<path d="M6400 3280 c0 -5 5 -10 10 -10 6 0 10 5 10 10 0 6 -4 10 -10 10 -5 0
-10 -4 -10 -10z"/>
<path d="M4900 3270 c0 -5 5 -10 11 -10 5 0 7 5 4 10 -3 6 -8 10 -11 10 -2 0
-4 -4 -4 -10z"/>
<path d="M2488 3243 c6 -2 18 -2 25 0 6 3 1 5 -13 5 -14 0 -19 -2 -12 -5z"/>
<path d="M3837 3239 c7 -7 15 -10 18 -7 3 3 -2 9 -12 12 -14 6 -15 5 -6 -5z"/>
<path d="M2423 3233 c-13 -2 -23 -9 -23 -14 0 -13 13 -11 46 6 28 15 22 17
-23 8z"/>
<path d="M2440 3200 c0 -5 10 -10 23 -10 18 0 19 2 7 10 -19 13 -30 13 -30 0z"/>
<path d="M2360 3140 c0 -5 5 -10 10 -10 6 0 10 5 10 10 0 6 -4 10 -10 10 -5 0
-10 -4 -10 -10z"/>
<path d="M3860 3125 c0 -2 12 -21 26 -42 l26 -38 -4 35 c-2 21 -8 34 -15 33
-7 -2 -13 2 -13 7 0 6 -4 10 -10 10 -5 0 -10 -2 -10 -5z"/>
<path d="M4021 3114 c0 -11 3 -14 6 -6 3 7 2 16 -1 19 -3 4 -6 -2 -5 -13z"/>
<path d="M4300 3111 c0 -5 7 -11 14 -14 10 -4 13 -1 9 9 -6 15 -23 19 -23 5z"/>
<path d="M2172 3098 c-14 -14 -16 -28 -3 -28 9 0 24 30 18 36 -2 2 -9 -2 -15
-8z"/>
<path d="M3840 3105 c0 -18 19 -40 26 -32 4 4 0 15 -9 24 -9 10 -17 13 -17 8z"/>
<path d="M2725 3089 c-4 -6 -5 -12 -2 -15 2 -3 7 2 10 11 7 17 1 20 -8 4z"/>
<path d="M4220 3088 c0 -9 7 -19 16 -22 15 -6 15 -4 3 11 -7 10 -15 20 -16 22
-2 2 -3 -3 -3 -11z"/>
<path d="M4352 3095 c47 -107 78 -157 78 -126 0 20 -41 99 -61 117 -12 10 -20
15 -17 9z"/>
<path d="M4146 3075 c4 -8 11 -15 16 -15 6 0 5 6 -2 15 -7 8 -14 15 -16 15 -2
0 -1 -7 2 -15z"/>
<path d="M3923 3055 c0 -13 3 -22 8 -19 5 3 9 14 9 25 0 10 -4 19 -9 19 -5 0
-8 -11 -8 -25z"/>
<path d="M4321 3064 c0 -11 3 -14 6 -6 3 7 2 16 -1 19 -3 4 -6 -2 -5 -13z"/>
<path d="M3046 3053 c-6 -14 -5 -15 5 -6 7 7 10 15 7 18 -3 3 -9 -2 -12 -12z"/>
<path d="M4280 3051 c0 -6 4 -13 10 -16 6 -3 7 1 4 9 -7 18 -14 21 -14 7z"/>
<path d="M2595 3029 c-4 -6 -5 -12 -2 -15 2 -3 7 2 10 11 7 17 1 20 -8 4z"/>
<path d="M2916 3025 c-9 -26 -7 -32 5 -12 6 10 9 21 6 23 -2 3 -7 -2 -11 -11z"/>
<path d="M4480 3023 c0 -4 5 -15 10 -23 8 -13 10 -13 10 2 0 9 -4 20 -10 23
-5 3 -10 3 -10 -2z"/>
<path d="M2877 3013 c-4 -3 -7 -11 -7 -17 0 -6 5 -5 12 2 6 6 9 14 7 17 -3 3
-9 2 -12 -2z"/>
<path d="M2545 2979 c-4 -6 -5 -12 -2 -15 2 -3 7 2 10 11 7 17 1 20 -8 4z"/>
<path d="M4457 2940 c3 -30 7 -57 9 -59 8 -9 2 75 -6 94 -5 12 -6 -1 -3 -35z"/>
<path d="M4541 2980 c0 -8 4 -22 9 -30 12 -18 12 -2 0 25 -6 13 -9 15 -9 5z"/>
<path d="M2601 2953 c-10 -26 -10 -27 4 -9 8 11 15 23 15 28 0 15 -7 8 -19
-19z"/>
<path d="M2690 2965 c-7 -9 -10 -18 -7 -21 3 -3 10 4 17 15 13 25 8 27 -10 6z"/>
<path d="M3001 2964 c0 -11 3 -14 6 -6 3 7 2 16 -1 19 -3 4 -6 -2 -5 -13z"/>
<path d="M2647 2950 c-9 -11 -13 -20 -7 -20 5 0 14 9 20 20 6 11 9 20 8 20 -2
0 -11 -9 -21 -20z"/>
<path d="M2502 2940 c0 -14 2 -19 5 -12 2 6 2 18 0 25 -3 6 -5 1 -5 -13z"/>
<path d="M2215 2930 c-3 -5 -1 -10 4 -10 6 0 11 5 11 10 0 6 -2 10 -4 10 -3 0
-8 -4 -11 -10z"/>
<path d="M3017 2933 c-4 -3 -7 -11 -7 -17 0 -6 5 -5 12 2 6 6 9 14 7 17 -3 3
-9 2 -12 -2z"/>
<path d="M2360 2890 c0 -5 5 -10 10 -10 6 0 10 5 10 10 0 6 -4 10 -10 10 -5 0
-10 -4 -10 -10z"/>
<path d="M2641 2883 c1 -5 1 -15 0 -23 -1 -13 -3 -13 -12 0 -9 12 -10 12 -5
-4 4 -11 3 -22 -2 -25 -4 -3 -5 -19 -1 -36 3 -19 8 -24 11 -15 30 88 34 110
18 110 -5 0 -9 -3 -9 -7z"/>
<path d="M4497 2876 c-4 -10 -1 -16 9 -16 9 0 12 -5 8 -12 -4 -7 -3 -8 4 -4
15 9 15 3 1 -28 -14 -30 -29 -26 -23 7 3 12 -3 5 -12 -16 -16 -37 -14 -67 6
-67 7 0 7 7 -1 23 -12 22 -12 22 9 3 18 -15 19 -22 10 -40 -9 -17 -8 -19 3 -8
7 7 12 29 11 50 -1 22 1 32 6 25 5 -8 8 2 8 25 0 42 -29 85 -39 58z"/>
<path d="M4580 2870 c0 -11 5 -20 10 -20 6 0 10 9 10 20 0 11 -4 20 -10 20 -5
0 -10 -9 -10 -20z"/>
<path d="M4546 2865 c4 -8 8 -15 10 -15 2 0 4 7 4 15 0 8 -4 15 -10 15 -5 0
-7 -7 -4 -15z"/>
<path d="M2580 2838 c0 -36 4 -35 14 5 4 16 2 27 -4 27 -5 0 -10 -14 -10 -32z"/>
<path d="M4453 2845 c-3 -9 -3 -18 -1 -21 3 -3 8 4 11 16 6 23 -1 27 -10 5z"/>
<path d="M2391 2834 c0 -11 3 -14 6 -6 3 7 2 16 -1 19 -3 4 -6 -2 -5 -13z"/>
<path d="M4084 2836 c-3 -8 -4 -23 -2 -32 2 -14 6 -12 15 9 8 16 9 29 3 32 -6
4 -13 -1 -16 -9z"/>
<path d="M4167 2834 c-8 -8 3 -34 14 -34 5 0 9 9 9 20 0 19 -11 26 -23 14z"/>
<path d="M4557 2834 c-3 -4 -2 -15 4 -25 7 -14 6 -19 -3 -19 -7 -1 -2 -10 12
-21 26 -22 41 -10 20 16 -6 8 -9 18 -6 23 7 11 -18 35 -27 26z"/>
<path d="M2540 2754 c0 -27 4 -43 10 -39 13 8 13 -39 1 -83 -10 -34 -2 -42 19
-17 7 8 16 12 21 10 4 -3 5 11 2 31 -5 29 -3 35 7 29 9 -5 11 -4 6 3 -10 17
-15 15 -26 -10 -9 -20 -9 -18 -4 9 3 17 1 34 -5 38 -6 3 -11 22 -11 41 0 19
-4 34 -10 34 -5 0 -10 -21 -10 -46z"/>
<path d="M2590 2764 c0 -16 5 -36 10 -44 6 -10 7 -2 3 25 -7 49 -13 58 -13 19z"/>
<path d="M2611 2750 c0 -8 4 -24 9 -35 l9 -20 0 20 c0 11 -4 27 -9 35 -9 13
-10 13 -9 0z"/>
<path d="M3817 2746 c-13 -10 -15 -16 -6 -21 10 -7 28 10 29 28 0 9 -2 9 -23
-7z"/>
<path d="M3000 2730 c0 -5 5 -10 10 -10 6 0 10 5 10 10 0 6 -4 10 -10 10 -5 0
-10 -4 -10 -10z"/>
<path d="M3660 2733 c0 -7 5 -15 10 -18 6 -3 10 -15 10 -26 0 -10 5 -19 11
-19 6 0 8 9 4 23 -8 26 -35 57 -35 40z"/>
<path d="M2953 2700 c1 -11 4 -20 8 -20 4 0 9 9 12 20 3 13 0 20 -8 20 -8 0
-13 -9 -12 -20z"/>
<path d="M3830 2692 c0 -15 34 -72 43 -72 15 0 6 30 -18 56 -14 15 -25 22 -25
16z"/>
<path d="M4038 2693 c7 -3 16 -2 19 1 4 3 -2 6 -13 5 -11 0 -14 -3 -6 -6z"/>
<path d="M2632 2670 c0 -14 2 -19 5 -12 2 6 2 18 0 25 -3 6 -5 1 -5 -13z"/>
<path d="M3612 2670 c0 -14 2 -19 5 -12 2 6 2 18 0 25 -3 6 -5 1 -5 -13z"/>
<path d="M2916 2653 c-6 -14 -5 -15 5 -6 7 7 10 15 7 18 -3 3 -9 -2 -12 -12z"/>
<path d="M3541 2654 c0 -11 3 -14 6 -6 3 7 2 16 -1 19 -3 4 -6 -2 -5 -13z"/>
<path d="M4060 2660 c0 -5 5 -10 10 -10 6 0 10 5 10 10 0 6 -4 10 -10 10 -5 0
-10 -4 -10 -10z"/>
<path d="M2955 2649 c-4 -6 -5 -12 -2 -15 2 -3 7 2 10 11 7 17 1 20 -8 4z"/>
<path d="M3620 2624 c0 -12 7 -27 15 -34 19 -16 19 -10 0 26 -13 25 -15 26
-15 8z"/>
<path d="M3411 2614 c0 -11 3 -14 6 -6 3 7 2 16 -1 19 -3 4 -6 -2 -5 -13z"/>
<path d="M3216 2574 c-23 -23 -20 -30 4 -9 11 10 20 20 20 22 0 7 -9 2 -24
-13z"/>
<path d="M2840 2562 c0 -12 5 -22 11 -22 5 0 7 -6 3 -12 -5 -10 -4 -10 6 -1
10 9 9 16 -4 34 l-16 23 0 -22z"/>
<path d="M3440 2548 c0 -14 7 -31 16 -39 13 -11 14 -9 8 17 -9 40 -24 54 -24
22z"/>
<path d="M3640 2566 c0 -2 7 -7 16 -10 8 -3 12 -2 9 4 -6 10 -25 14 -25 6z"/>
<path d="M3325 2530 c-3 -5 -1 -10 4 -10 6 0 11 5 11 10 0 6 -2 10 -4 10 -3 0
-8 -4 -11 -10z"/>
<path d="M3293 2480 c-13 -16 -23 -34 -23 -41 0 -8 12 4 26 24 31 46 28 56 -3
17z"/>
<path d="M3900 2501 c0 -6 4 -13 10 -16 6 -3 7 1 4 9 -7 18 -14 21 -14 7z"/>
<path d="M3470 2473 c0 -13 5 -23 10 -23 13 0 13 11 0 30 -8 12 -10 11 -10 -7z"/>
<path d="M2840 2469 c0 -4 -10 -10 -22 -14 -15 -4 -19 -8 -10 -12 8 -3 19 0
25 6 6 6 24 11 39 11 15 0 28 5 28 10 0 6 -13 9 -30 8 -16 -1 -30 -5 -30 -9z"/>
<path d="M2928 2463 c6 -2 18 -2 25 0 6 3 1 5 -13 5 -14 0 -19 -2 -12 -5z"/>
<path d="M4225 2460 c-3 -5 -3 -15 1 -21 6 -11 23 6 24 24 0 10 -18 9 -25 -3z"/>
<path d="M6651 2423 c-6 -7 -11 -22 -11 -35 l0 -23 18 22 c10 14 27 22 42 22
112 -4 191 -3 225 4 26 5 35 4 26 -2 -10 -6 4 -10 43 -12 93 -6 156 1 156 17
0 8 -6 14 -12 14 -212 7 -477 3 -487 -7z"/>
<path d="M3215 2410 c4 -6 11 -8 16 -5 14 9 11 15 -7 15 -8 0 -12 -5 -9 -10z"/>
<path d="M6025 2410 c3 -5 8 -10 11 -10 2 0 4 5 4 10 0 6 -5 10 -11 10 -5 0
-7 -4 -4 -10z"/>
<path d="M6080 2390 c8 -5 20 -10 25 -10 6 0 3 5 -5 10 -8 5 -19 10 -25 10 -5
0 -3 -5 5 -10z"/>
<path d="M3520 2381 c0 -5 5 -13 10 -16 6 -3 10 -2 10 4 0 5 -4 13 -10 16 -5
3 -10 2 -10 -4z"/>
<path d="M6715 2330 c3 -19 10 -39 15 -44 7 -7 7 -1 1 19 -17 54 -21 61 -16
25z"/>
<path d="M5970 2312 c0 -13 27 -35 39 -30 5 1 -2 11 -15 21 -13 10 -24 14 -24
9z"/>
<path d="M3209 2293 c-13 -16 -12 -17 4 -4 9 7 17 15 17 17 0 8 -8 3 -21 -13z"/>
<path d="M3571 2265 c0 -11 4 -27 9 -35 9 -13 10 -13 9 0 0 8 -4 24 -9 35 l-9
20 0 -20z"/>
<path d="M3916 2271 c-4 -6 -2 -11 3 -11 6 0 12 -10 12 -22 1 -17 3 -18 6 -6
6 23 -12 55 -21 39z"/>
<path d="M2935 2260 c-3 -5 -2 -10 4 -10 5 0 13 5 16 10 3 6 2 10 -4 10 -5 0
-13 -4 -16 -10z"/>
<path d="M4160 2261 c0 -5 5 -13 10 -16 6 -3 10 -2 10 4 0 5 -4 13 -10 16 -5
3 -10 2 -10 -4z"/>
<path d="M6020 2260 c-23 -7 -23 -8 -3 -9 12 -1 25 4 28 9 3 6 5 10 3 9 -2 -1
-14 -5 -28 -9z"/>
<path d="M6146 2255 c-3 -8 -1 -15 4 -15 6 0 10 7 10 15 0 8 -2 15 -4 15 -2 0
-6 -7 -10 -15z"/>
<path d="M3820 2212 c0 -18 12 -42 21 -42 14 0 10 26 -6 40 -9 8 -15 8 -15 2z"/>
<path d="M3305 2200 c-3 -6 1 -7 9 -4 18 7 21 14 7 14 -6 0 -13 -4 -16 -10z"/>
<path d="M3590 2200 c-8 -5 -12 -11 -9 -14 2 -3 11 -1 19 4 8 5 12 11 9 14 -2
3 -11 1 -19 -4z"/>
<path d="M3648 2178 c8 -8 9 -15 0 -25 -8 -10 -6 -18 7 -33 24 -26 11 -39 -15
-15 -24 22 -25 18 -5 -22 19 -37 33 -49 62 -51 28 -1 35 32 14 73 -9 17 -19
32 -22 35 -3 3 -11 15 -18 28 -6 12 -17 22 -23 22 -9 0 -9 -3 0 -12z m33 -51
c9 -12 19 -35 23 -50 6 -26 5 -27 -14 -17 -14 7 -19 17 -16 27 4 9 -1 26 -9
39 -20 30 -5 31 16 1z"/>
<path d="M3605 2170 c-3 -5 -1 -10 4 -10 6 0 11 5 11 10 0 6 -2 10 -4 10 -3 0
-8 -4 -11 -10z"/>
<path d="M3710 2170 c0 -5 5 -10 11 -10 5 0 7 5 4 10 -3 6 -8 10 -11 10 -2 0
-4 -4 -4 -10z"/>
<path d="M2955 2161 c-6 -11 13 -26 22 -17 4 3 1 6 -6 6 -7 0 -9 5 -6 10 3 6
4 10 1 10 -3 0 -7 -4 -11 -9z"/>
<path d="M3002 2158 c-14 -14 -16 -28 -2 -28 5 0 14 9 20 20 12 22 1 27 -18 8z"/>
<path d="M3281 2154 c0 -11 3 -14 6 -6 3 7 2 16 -1 19 -3 4 -6 -2 -5 -13z"/>
<path d="M3300 2150 c0 -11 2 -20 4 -20 2 0 6 9 9 20 3 11 1 20 -4 20 -5 0 -9
-9 -9 -20z"/>
<path d="M3846 2145 c4 -8 8 -15 10 -15 2 0 4 7 4 15 0 8 -4 15 -10 15 -5 0
-7 -7 -4 -15z"/>
<path d="M3157 2143 c-4 -3 -7 -24 -7 -46 0 -50 8 -45 15 11 5 42 4 47 -8 35z"/>
<path d="M3730 2130 c13 -23 20 -26 20 -6 0 8 -7 16 -15 20 -13 4 -14 2 -5
-14z"/>
<path d="M3191 2114 c0 -11 3 -14 6 -6 3 7 2 16 -1 19 -3 4 -6 -2 -5 -13z"/>
<path d="M2976 2105 c-9 -26 -7 -32 5 -12 6 10 9 21 6 23 -2 3 -7 -2 -11 -11z"/>
<path d="M3391 2023 c2 -127 12 -214 23 -185 4 13 4 42 0 65 -3 23 -7 79 -8
124 0 46 -4 83 -8 83 -5 0 -8 -39 -7 -87z"/>
<path d="M3575 2100 c3 -5 8 -10 11 -10 2 0 4 5 4 10 0 6 -5 10 -11 10 -5 0
-7 -4 -4 -10z"/>
<path d="M2995 2079 c-4 -6 -5 -12 -2 -15 2 -3 7 2 10 11 7 17 1 20 -8 4z"/>
<path d="M3270 2049 c0 -22 4 -38 8 -35 8 5 4 76 -4 76 -2 0 -4 -18 -4 -41z"/>
<path d="M3121 2027 c0 -18 4 -41 9 -52 l9 -20 2 20 c1 11 3 26 3 33 1 7 7 17
15 21 13 9 9 13 -21 24 -15 5 -18 1 -17 -26z"/>
<path d="M3251 1968 c-1 -20 14 -24 25 -6 4 6 3 8 -4 4 -5 -3 -13 0 -15 6 -3
8 -6 6 -6 -4z"/>
<path d="M6835 1920 c-3 -5 -2 -10 4 -10 5 0 13 5 16 10 3 6 2 10 -4 10 -5 0
-13 -4 -16 -10z"/>
<path d="M6865 1860 c3 -5 8 -10 11 -10 2 0 4 5 4 10 0 6 -5 10 -11 10 -5 0
-7 -4 -4 -10z"/>
</g>
</svg>
