<?xml version="1.0" standalone="no"?>
<!DOCTYPE svg PUBLIC "-//W3C//DTD SVG 20010904//EN"
 "http://www.w3.org/TR/2001/REC-SVG-20010904/DTD/svg10.dtd">
<svg version="1.0" xmlns="http://www.w3.org/2000/svg"
 width="128.000000pt" height="128.000000pt" viewBox="0 0 128.000000 128.000000"
 preserveAspectRatio="xMidYMid meet">
<metadata>
Created by potrace 1.14, written by Peter Selinger 2001-2017
</metadata>
<g transform="translate(0.000000,128.000000) scale(0.100000,-0.100000)"
fill="#000000" stroke="none">
<path d="M492 1252 c-13 -4 -23 -10 -23 -14 2 -20 0 -22 -8 -9 -7 11 -14 10
-39 -8 -17 -11 -34 -21 -38 -21 -7 0 -25 -18 -88 -89 -21 -23 -25 -43 -32
-151 -5 -65 23 -220 39 -220 4 0 7 45 7 100 0 179 69 292 144 235 15 -11 51
-15 149 -15 128 0 130 0 155 27 23 25 23 27 6 40 -10 7 -13 13 -8 13 6 0 34
-21 62 -47 55 -51 65 -73 98 -218 10 -44 20 -83 23 -87 9 -11 6 170 -3 237 -9
61 -31 104 -53 105 -7 0 -10 6 -7 14 6 16 -60 76 -84 76 -16 -1 -16 -1 0 -11
10 -5 15 -16 12 -24 -4 -8 -1 -15 5 -15 6 0 11 5 11 10 0 6 5 10 11 10 6 0 8
-7 5 -16 -4 -10 1 -25 10 -35 16 -18 16 -19 1 -19 -10 0 -17 3 -17 8 0 4 -9
13 -21 20 -17 11 -20 11 -13 0 6 -10 4 -10 -9 1 -9 7 -17 22 -17 33 0 14 -5
18 -15 15 -8 -3 -33 0 -57 8 -31 11 -35 14 -13 11 17 -3 38 -8 48 -11 10 -4
17 -3 17 4 0 6 -12 13 -27 17 -16 3 -45 12 -66 20 -38 14 -124 17 -165 6z
m188 -92 c-25 -4 -49 -4 -54 1 -6 5 12 8 45 8 l54 -2 -45 -7z m180 -5 c7 -9 8
-15 2 -15 -5 0 -12 7 -16 15 -3 8 -4 15 -2 15 2 0 9 -7 16 -15z m-170 -14 c0
-17 -18 -21 -24 -6 -3 9 0 15 9 15 8 0 15 -4 15 -9z m40 -51 c0 -5 -7 -7 -15
-4 -8 4 -15 8 -15 10 0 2 7 4 15 4 8 0 15 -4 15 -10z"/>
<path d="M702 818 c-58 -22 -65 -29 -57 -61 6 -24 11 -26 78 -29 40 -2 74 0
75 5 2 4 7 5 11 3 14 -9 32 11 25 27 -5 13 -18 16 -65 14 -64 -3 -64 5 -1 33
35 16 44 16 66 5 22 -12 26 -12 26 0 0 29 -85 30 -158 3z"/>
<path d="M495 810 c-4 -6 -16 -10 -28 -9 -45 4 -113 -2 -126 -10 -24 -15 2
-82 39 -104 16 -10 30 -14 30 -9 0 15 87 35 120 29 29 -6 30 -6 30 34 0 36 -3
41 -30 50 -16 6 -27 15 -24 20 3 5 3 9 0 9 -3 0 -8 -5 -11 -10z m-46 -49 c11
-7 5 -11 -22 -16 -38 -7 -61 0 -52 16 8 12 56 12 74 0z"/>
<path d="M941 657 c-1 -58 -5 -71 -28 -97 -15 -17 -27 -40 -28 -51 -2 -20 -65
-89 -82 -89 -4 0 -14 9 -21 20 -9 15 -22 19 -50 18 -21 0 -47 4 -58 10 -17 10
-17 11 -1 12 15 0 16 3 7 21 -10 17 -8 21 9 26 11 3 22 12 25 20 5 11 -2 14
-32 12 -20 -2 -43 -7 -49 -12 -7 -5 -25 -6 -40 -2 -36 10 -76 6 -85 -9 -4 -6
4 -22 19 -37 24 -22 33 -24 71 -19 23 4 45 3 48 -2 11 -17 -8 -28 -44 -26 -20
1 -56 1 -79 0 -40 -2 -43 -4 -43 -31 0 -17 -6 -31 -16 -35 -10 -4 -13 -2 -8 6
5 7 2 9 -9 5 -10 -4 -14 -2 -11 6 2 7 -7 21 -21 31 -14 10 -25 26 -25 35 0 9
-8 24 -17 32 -52 46 -63 68 -63 130 0 37 -4 58 -10 54 -5 -3 -10 -16 -10 -28
0 -11 -8 -47 -17 -79 l-17 -58 -128 0 -128 0 0 -69 c0 -67 1 -69 28 -74 15 -4
44 -10 66 -14 l38 -8 -66 -35 -66 -35 0 -142 0 -143 640 0 640 0 0 98 c0 96
-1 99 -28 119 -19 14 -34 38 -42 67 -14 49 -40 63 -40 21 0 -30 -6 -31 -45 -5
-16 11 -37 20 -45 20 -8 0 -21 9 -27 19 -10 16 -9 20 11 25 12 3 64 5 115 5
51 0 96 2 99 5 10 11 -6 17 -54 21 -40 3 -52 10 -73 37 -14 17 -28 43 -31 57
-5 24 -10 26 -65 31 l-60 5 0 45 c0 26 -5 48 -12 53 -7 4 -13 16 -13 25 -1 9
-7 31 -15 47 -13 29 -13 28 -14 -38z m-286 -227 c6 -9 40 -7 82 5 17 6 22 2
27 -22 12 -52 -24 -112 -66 -113 -10 0 -18 -4 -18 -8 0 -5 -16 -8 -35 -7 -25
0 -35 -4 -36 -15 0 -10 -3 -9 -9 5 -6 15 -9 16 -9 4 -1 -19 -31 -21 -31 -2 0
7 -8 13 -18 13 -12 0 -23 15 -35 48 -21 57 -21 62 -2 62 8 0 15 4 15 9 0 23
122 42 135 21z m162 -62 c-3 -7 -5 -2 -5 12 0 14 2 19 5 13 2 -7 2 -19 0 -25z
m-382 2 c-3 -5 -12 -10 -18 -10 -7 0 -6 4 3 10 19 12 23 12 15 0z"/>
</g>
</svg>
