<?xml version="1.0" encoding="utf-8"?>
<!-- Generator: Adobe Illustrator 26.3.1, SVG Export Plug-In . SVG Version: 6.00 Build 0)  -->
<svg version="1.1" id="Layer_1" xmlns="http://www.w3.org/2000/svg" xmlns:xlink="http://www.w3.org/1999/xlink" x="0px" y="0px"
	 viewBox="0 0 1514.3 678.1" style="enable-background:new 0 0 1514.3 678.1;" xml:space="preserve">
<style type="text/css">
	.st0{fill:#40AA1D;}
	.st1{fill:#3D4647;}
	.st2{fill:#4D5858;}
</style>
<g>
	<g>
		<g id="XMLID_85_">
			<g id="XMLID_87_">
				<polygon id="XMLID_91_" class="st0" points="317,392.6 427,329.1 316.7,265.6 206.9,329.1 				"/>
				<g id="XMLID_88_">
					<polygon id="XMLID_90_" class="st1" points="316.7,242.6 446.3,317.2 446.3,254.8 316.1,179.7 187.3,254.9 187.3,317.4 					
						"/>
					<polygon id="XMLID_89_" class="st1" points="317,415.5 187.3,340.7 187.3,403.3 317.5,478.5 446.3,403.2 446.3,340.9 					"/>
				</g>
			</g>
			<g>
				<path class="st1" d="M675.8,272l-45.6,116.9h-20.6L563.9,272H583l36.9,98.2l36.7-98.2H675.8z"/>
				<path class="st1" d="M774.2,388.8v-18.2c-4.2,5.6-9.3,10.4-15.4,14.3c-6.1,3.9-13,5.8-20.8,5.8c-7.8,0-14.5-1.1-20.1-3.3
					c-5.6-2.2-10.5-5.5-14.7-9.8c-9.7-9.5-14.5-22-14.5-37.6v-68h17.5v67.5c0,10.8,3,19.3,9.1,25.7c6.1,6.4,13.9,9.6,23.6,9.6
					c9.8,0,18.2-3.3,25-9.8c6.9-6.7,10.3-15.3,10.3-25.7V272h17.5v116.9H774.2z"/>
				<path class="st1" d="M864.2,240c-8.3,0-14.5,1.8-18.6,5.5c-4.1,3.7-6.2,9.5-6.2,17.6v8.9h27.1v15.4h-27.1v101.4h-17.5V272v-10.3
					c0-12.8,3.8-22.4,11.5-28.7c7.6-6.4,18.2-9.6,31.8-9.6h1.4V240H864.2z"/>
				<path class="st1" d="M934.1,270.1c17.4,0,31.6,5.8,42.5,17.5c10.3,11.2,15.4,25.5,15.4,42.8c0,17.3-5.1,31.6-15.4,42.8
					c-10.9,11.7-25.1,17.5-42.5,17.5c-17.5,0-31.6-5.8-42.5-17.5c-10.3-11.2-15.4-25.5-15.4-42.8c0-17.3,5.1-31.5,15.4-42.8
					C902.5,276,916.6,270.1,934.1,270.1z M934.1,374.8c12.6,0,22.6-4.4,29.9-13.1c7-8.3,10.5-18.7,10.5-31.3
					c0-12.6-3.5-23.1-10.5-31.3c-7.3-8.7-17.3-13.1-29.9-13.1c-12.6,0-22.6,4.4-29.9,13.1c-7,8.3-10.5,18.7-10.5,31.3
					c0,12.6,3.5,23.1,10.5,31.3C911.5,370.5,921.5,374.8,934.1,374.8z"/>
				<path class="st1" d="M1074.6,270.1v17.5h-2.1c-12.6,0-22.9,5.1-30.9,15.2c-7.5,9.7-11.2,21.2-11.2,34.6v51.4h-17.5V272h17.5
					v28.7c3.7-12.2,11.8-21.1,24.3-26.9c5.1-2.5,11.4-3.7,18.7-3.7H1074.6z"/>
				<path class="st1" d="M1099.8,229c3.4,0,6.3,1.2,8.6,3.5c2.3,2.3,3.5,5.1,3.5,8.4c0,3.4-1.2,6.3-3.5,8.6
					c-2.3,2.3-5.2,3.5-8.6,3.5s-6.3-1.2-8.6-3.5c-2.3-2.3-3.5-5.2-3.5-8.6c0-3.3,1.2-6.1,3.5-8.4
					C1093.5,230.2,1096.4,229,1099.8,229z M1091.1,272h17.5v116.9h-17.5V272z"/>
				<path class="st1" d="M1227.9,370.2c-9.4,13.7-23.3,20.6-41.8,20.6c-16.8,0-30.5-5.8-41.1-17.5c-10.3-11.5-15.4-25.8-15.4-42.8
					c0-17,5.1-31.2,15.4-42.8c10.6-11.7,24.7-17.5,42.3-17.5c17.6,0,31.2,6.9,40.7,20.8V272h17.5v116.9h-17.5V370.2z M1188.4,374.8
					c12.6,0,22.6-4.4,29.9-13.1c7-8.3,10.5-18.7,10.5-31.3c0-12.6-3.5-23.1-10.5-31.3c-7.3-8.7-17.3-13.1-29.9-13.1
					c-12.5,0-22.6,4.4-30.4,13.1c-7.3,8.3-11,18.7-11,31.3c0,12.6,3.7,23.1,11,31.3C1165.8,370.5,1175.9,374.8,1188.4,374.8z"/>
			</g>
		</g>
	</g>
	<g>
		<path class="st2" d="M1280.3,273.6c2.6,0,5,0.5,7.3,1.5c2.3,1,4.3,2.3,5.9,4c1.7,1.7,3,3.7,4,5.9c1,2.3,1.5,4.7,1.5,7.3
			c0,2.6-0.5,5-1.5,7.3c-1,2.3-2.3,4.2-4,5.9c-1.7,1.7-3.7,3-5.9,4c-2.3,1-4.7,1.5-7.3,1.5s-5-0.5-7.3-1.5c-2.3-1-4.2-2.3-5.9-4
			c-1.7-1.7-3-3.7-4-5.9c-1-2.3-1.5-4.7-1.5-7.3c0-2.6,0.5-5,1.5-7.3c1-2.3,2.3-4.3,4-5.9c1.7-1.7,3.7-3,5.9-4
			C1275.3,274.1,1277.7,273.6,1280.3,273.6z M1280.3,308.3c4.4,0,8.2-1.6,11.3-4.7c1.5-1.5,2.6-3.2,3.4-5.1c0.8-1.9,1.3-4,1.3-6.2
			s-0.4-4.3-1.3-6.2c-0.8-1.9-2-3.6-3.4-5.1c-3.1-3.1-6.9-4.7-11.3-4.7c-4.5,0-8.2,1.6-11.3,4.7c-3.1,3.2-4.7,6.9-4.7,11.3
			c0,2.2,0.4,4.2,1.3,6.2c0.8,1.9,2,3.6,3.4,5.1C1272,306.7,1275.8,308.3,1280.3,308.3z M1289.5,288.1c0,1.2-0.4,2.3-1.1,3.3
			c-0.7,1-1.7,1.6-3,2c2,0.6,3.2,2.2,3.7,4.9c0.1,0.7,0.2,1.3,0.2,1.9v2.6h-3.8v-2.1c0-1.6-0.2-2.7-0.5-3.4
			c-0.7-1.5-1.9-2.2-3.7-2.2h-5.3v7.6h-3.8v-20.8h8.8c2.9,0,5.1,0.6,6.5,1.7C1288.8,284.7,1289.5,286.2,1289.5,288.1z M1280.7,291.8
			c1.5,0,2.7-0.3,3.7-0.9c0.9-0.6,1.4-1.4,1.4-2.5c0-1.1-0.4-1.9-1.1-2.5c-0.7-0.6-2.1-0.9-4-0.9h-4.6v6.7H1280.7z"/>
	</g>
</g>
</svg>
